<svg id="Group_26" data-name="Group 26" xmlns="http://www.w3.org/2000/svg" xmlns:xlink="http://www.w3.org/1999/xlink" width="33.885" height="34.635" viewBox="0 0 33.885 34.635">
  <defs>
    <clipPath id="clip-path">
      <rect id="Rectangle_168" data-name="Rectangle 168" width="33.885" height="34.635"/>
    </clipPath>
  </defs>
  <g id="Group_25" data-name="Group 25" clip-path="url(#clip-path)">
    <path id="Path_60" data-name="Path 60" d="M15.8,32.407H11.408q-4.4,0-8.793,0A2.334,2.334,0,0,1,0,29.764Q0,16.951,0,4.139c0-1.758.845-2.595,2.624-2.6,2.428,0,4.856-.013,7.283.009A1.11,1.11,0,0,0,10.991,1a2.152,2.152,0,0,1,3.65.021,1.045,1.045,0,0,0,1.008.528c2.484-.019,4.968-.014,7.453-.007a2.273,2.273,0,0,1,2.525,2.536c.006,2.872,0,5.743,0,8.69.311.015.579.038.847.039,1.7,0,3.406-.016,5.108.008a2.186,2.186,0,0,1,2.289,2.256q.026,8.667,0,17.334a2.111,2.111,0,0,1-2.215,2.217q-6.783.025-13.566,0c-1.262,0-1.965-.693-2.295-2.216M6.031,2.972c-1.226,0-2.311-.01-3.4,0-.9.011-1.124.243-1.125,1.152q0,12.808,0,25.615c0,1.01.149,1.155,1.173,1.156q6.194,0,12.389,0c.242,0,.483-.029.8-.05V29.808q0-7.283,0-14.565a2.24,2.24,0,0,1,2.449-2.434c.335,0,.67,0,1,0h4.8c0-3.057.021-6.01-.032-8.962a1.116,1.116,0,0,0-.707-.821c-1.239-.088-2.488-.039-3.782-.039,0,.77.008,1.437,0,2.1a2.238,2.238,0,0,1-2.405,2.4q-4.395.019-8.789,0a2.226,2.226,0,0,1-2.37-2.428c-.007-.664,0-1.328,0-2.089M17.3,23.743q0,4.1,0,8.206c0,.989.243,1.245,1.233,1.247q6.322.009,12.645,0c1.037,0,1.27-.239,1.271-1.294q.006-8.165,0-16.329c0-1.065-.2-1.257-1.276-1.257q-6.28,0-12.561,0c-1.128,0-1.31.177-1.311,1.3q-.005,4.061,0,8.123M7.539,2.975c0,.771.011,1.461,0,2.15a.821.821,0,0,0,.927.93q4.351.018,8.7,0c.488,0,.9-.2.916-.763.026-.744.006-1.49.006-2.32-.914,0-1.746-.035-2.573.02a1.186,1.186,0,0,0-.779.425,2.23,2.23,0,0,1-3.837,0c-.129-.18-.347-.409-.533-.418-.912-.043-1.826-.02-2.828-.02m5.32-1.792c-.367.469-.781.773-.745,1.009.046.307.45.56.7.836.247-.252.658-.483.693-.761s-.326-.58-.648-1.084" transform="translate(0 0.001)"/>
    <path id="Path_61" data-name="Path 61" d="M27.144,116.743a4.481,4.481,0,1,1-4.5,4.484,4.418,4.418,0,0,1,4.5-4.484m.018,1.481a3.052,3.052,0,0,0-3.073,3.131,3.1,3.1,0,0,0,3.178,2.911,2.9,2.9,0,0,0,2.775-3.091H27.162Z" transform="translate(-18.835 -97.108)"/>
    <path id="Path_62" data-name="Path 62" d="M22.875,69.129V67.8l1.428-.1v-2.2h1.453v2.166h1.588V63.285h1.422v4.409h1.578V64.8H31.8v2.9l1.451.087v1.343Z" transform="translate(-19.028 -52.641)"/>
    <path id="Path_63" data-name="Path 63" d="M118.275,94.049c1.618,0,3.236.018,4.853-.008.766-.012,1.145.263,1.112,1.072-.035.835-.02,1.673,0,2.51.011.62-.261.947-.888.947q-5.1,0-10.209,0c-.627,0-.9-.321-.892-.943.015-.864.019-1.73,0-2.594-.017-.711.3-1,1.009-.992,1.673.023,3.347.007,5.021.007m-4.558,2.963h9.019v-1.4h-9.019Z" transform="translate(-93.366 -78.224)"/>
    <path id="Path_64" data-name="Path 64" d="M113.626,132c-1.5-.1-1.751-.347-1.564-1.61.012-.082,0-.21.046-.237.287-.173.591-.461.882-.452.651.02,1.5-.376,1.888.4a1.893,1.893,0,0,1-.085,1.495c-.136.264-.761.276-1.166.4" transform="translate(-93.17 -107.819)"/>
    <path id="Path_65" data-name="Path 65" d="M140.539,132.166c-1.324,0-1.456-.137-1.429-1.293.015-.618.276-.931.9-.93h.748c1.146,0,1.294.128,1.3,1.106,0,1-.126,1.113-1.267,1.117h-.249" transform="translate(-115.711 -108.089)"/>
    <path id="Path_66" data-name="Path 66" d="M167.474,132.129c-1.373,0-1.453-.087-1.478-1.163-.018-.8.339-1.119,1.1-1.062.11.008.222,0,.333,0,1.382,0,1.514.1,1.511,1.143,0,1-.116,1.081-1.469,1.081" transform="translate(-138.077 -108.051)"/>
    <path id="Path_67" data-name="Path 67" d="M113.11,151.683c1.366.151,1.49.239,1.5,1.174.016,1.04-.138,1.194-1.2,1.2q-.25,0-.5,0c-1.106,0-1.714-.887-1.129-1.8.215-.336.872-.389,1.328-.572" transform="translate(-92.793 -126.172)"/>
    <path id="Path_68" data-name="Path 68" d="M140.03,151.728c1.338.144,1.454.23,1.463,1.2.009.99-.157,1.158-1.154,1.167-.194,0-.388,0-.582,0-1.071-.006-1.7-.972-1.084-1.83.238-.332.893-.366,1.358-.536" transform="translate(-115.149 -126.209)"/>
    <path id="Path_69" data-name="Path 69" d="M167.534,152.579c1.317,0,1.442.087,1.459,1.008.019,1.041-.143,1.208-1.189,1.215h-.249c-1.375,0-1.5-.1-1.5-1.154,0-.992.111-1.069,1.479-1.069" transform="translate(-138.127 -126.917)"/>
    <path id="Path_70" data-name="Path 70" d="M113.712,176.982c-1.308,0-1.427-.085-1.441-1.024-.015-1.044.135-1.193,1.2-1.2h.416c1.172,0,1.326.139,1.318,1.17-.008.953-.132,1.051-1.33,1.053h-.166" transform="translate(-93.388 -145.366)"/>
    <path id="Path_71" data-name="Path 71" d="M140.608,176.982c-1.312,0-1.432-.085-1.447-1.018-.017-1.044.137-1.2,1.2-1.205h.416c1.181,0,1.331.134,1.324,1.164-.007.956-.134,1.057-1.324,1.059h-.166" transform="translate(-115.755 -145.366)"/>
    <path id="Path_72" data-name="Path 72" d="M167.431,176.974c-1.324,0-1.454-.137-1.429-1.292.014-.678.337-.952.981-.932.222.007.443,0,.665,0,1.149,0,1.294.126,1.3,1.106,0,1-.125,1.114-1.266,1.117h-.249" transform="translate(-138.08 -145.358)"/>
  </g>
</svg>
