<svg id="Group_4" data-name="Group 4" xmlns="http://www.w3.org/2000/svg" xmlns:xlink="http://www.w3.org/1999/xlink" width="27.284" height="25.532" viewBox="0 0 27.284 25.532">
  <defs>
    <clipPath id="clip-path">
      <rect id="Rectangle_141" data-name="Rectangle 141" width="27.284" height="25.532" fill="#4e4e4e"/>
    </clipPath>
  </defs>
  <g id="Group_3" data-name="Group 3" clip-path="url(#clip-path)">
    <path id="Path_24" data-name="Path 24" d="M124.756,128.742a2.439,2.439,0,1,1-4.878.008,2.439,2.439,0,0,1,4.878-.008" transform="translate(-100.273 -105.656)" fill="#4e4e4e"/>
    <path id="Path_25" data-name="Path 25" d="M42.344,126.311a2.437,2.437,0,1,1-2.415,2.454,2.453,2.453,0,0,1,2.415-2.454" transform="translate(-33.398 -105.654)" fill="#4e4e4e"/>
    <path id="Path_26" data-name="Path 26" d="M25.666,2.7c-1.523-.143-3.07-.036-4.606-.036l-10.113-.1c-2.038,0-3.968-.013-5.9.009-.51.006-.752-.109-.885-.669A2.843,2.843,0,0,0,3.362.54C2.481-.264,1.355.057.312.094.194.1-.005.414,0,.579a.609.609,0,0,0,.358.452,3.945,3.945,0,0,0,.973.055c1.43.006,1.641.184,1.918,1.548Q4.7,9.8,6.176,16.955a2.58,2.58,0,0,0,2.539,2.237c4.932.025,9.864.013,14.8.014.082,0,.194.027.24-.016.178-.165.423-.335.467-.54.026-.122-.251-.373-.44-.458a1.672,1.672,0,0,0-.646-.031H16.264c-2.4,0-4.8.01-7.193-.007a1.57,1.57,0,0,1-1.811-1.587h.98q7.4,0,14.8,0a2.2,2.2,0,0,0,2.433-1.736q.938-4.851,1.785-9.719A2.022,2.022,0,0,0,25.666,2.7" transform="translate(0 0)" fill="#4e4e4e"/>
  </g>
</svg>
