<svg id="Group_20" data-name="Group 20" xmlns="http://www.w3.org/2000/svg" xmlns:xlink="http://www.w3.org/1999/xlink" width="36.966" height="36.965" viewBox="0 0 36.966 36.965">
  <defs>
    <clipPath id="clip-path">
      <rect id="Rectangle_165" data-name="Rectangle 165" width="36.966" height="36.965"/>
    </clipPath>
  </defs>
  <g id="Group_19" data-name="Group 19" transform="translate(0 0)" clip-path="url(#clip-path)">
    <path id="Path_48" data-name="Path 48" d="M2.889,27.72c0-.4,0-.744,0-1.091a1.143,1.143,0,0,1,1.222-1.219q2.905-.005,5.811,0h.449V23.1c-.573,0-1.146.008-1.718,0a2.147,2.147,0,0,1-1.944-1.1,2.566,2.566,0,0,1-.34-1.155c-.038-1.575-.028-3.152-.012-4.727a2.285,2.285,0,0,1,2.271-2.248c.574-.009,1.149,0,1.767,0,0-.48,0-.921,0-1.363a1.151,1.151,0,0,1,1.241-1.236q2.887,0,5.774,0h.46V9.241c-.523,0-1.036,0-1.55,0A2.3,2.3,0,0,1,13.86,6.781q0-2.165,0-4.331A2.3,2.3,0,0,1,16.3,0q2.2,0,4.4,0a2.3,2.3,0,0,1,2.4,2.378q.009,2.237,0,4.475A2.3,2.3,0,0,1,20.707,9.24c-.528,0-1.057,0-1.618,0v2.021h.424q2.869,0,5.738,0a1.169,1.169,0,0,1,1.312,1.31c0,.408,0,.817,0,1.288h.9a2.324,2.324,0,0,1,2.562,2.576c0,1.42,0,2.839,0,4.259a2.3,2.3,0,0,1-2.408,2.4c-.527,0-1.054,0-1.607,0v2.31h6.729A1.173,1.173,0,0,1,34.07,26.74c0,.31,0,.62,0,.98.233,0,.433,0,.634,0a2.289,2.289,0,0,1,2.249,2.234q.026,2.382,0,4.764a2.272,2.272,0,0,1-2.244,2.235q-2.364.025-4.728,0A2.278,2.278,0,0,1,27.723,34.7q-.019-2.346,0-4.692A2.287,2.287,0,0,1,30,27.722c.83-.011,1.66,0,2.49,0h.408V26.59H19.087v1.129c.535,0,1.061,0,1.586,0A2.3,2.3,0,0,1,23.1,30.143q.006,2.2,0,4.4a2.3,2.3,0,0,1-2.437,2.412q-2.183,0-4.367,0a2.3,2.3,0,0,1-2.433-2.415q-.007-2.22,0-4.439a2.3,2.3,0,0,1,2.392-2.384c.528,0,1.057,0,1.617,0V26.587H4.07V27.7c.118.006.244.017.371.017.806,0,1.612,0,2.418,0a2.3,2.3,0,0,1,2.38,2.36q.009,2.255,0,4.511a2.294,2.294,0,0,1-2.372,2.367q-2.238.006-4.475,0A2.3,2.3,0,0,1,0,34.571q-.006-2.2,0-4.4A2.3,2.3,0,0,1,2.437,27.72h.451M11.583,23.1v2.284H24.809V23.1c-.56,0-1.1,0-1.637,0A2.278,2.278,0,0,1,20.8,20.777c-.023-1.563-.02-3.128,0-4.691a2.28,2.28,0,0,1,2.222-2.221c.661-.015,1.323,0,1.985,0,.127,0,.254-.011.383-.017V12.449H11.578v1.414c.616,0,1.2-.012,1.791,0a2.282,2.282,0,0,1,2.217,2.226q.025,2.363,0,4.727a2.278,2.278,0,0,1-2.31,2.28c-.553.006-1.106,0-1.692,0M21.944,18.48h-.009q0,1.1,0,2.2a1.173,1.173,0,0,0,1.227,1.263q2.254.012,4.509,0a1.147,1.147,0,0,0,1.2-1.206q.007-2.236,0-4.472a1.151,1.151,0,0,0-1.235-1.246q-2.218-.011-4.437,0a1.157,1.157,0,0,0-1.254,1.263c0,.733,0,1.467,0,2.2M18.473,8.086c.733,0,1.467,0,2.2,0a1.157,1.157,0,0,0,1.269-1.248q.009-2.218,0-4.436A1.15,1.15,0,0,0,20.7,1.159q-2.218-.01-4.436,0a1.156,1.156,0,0,0-1.251,1.265q-.008,2.2,0,4.4a1.158,1.158,0,0,0,1.257,1.261c.733.006,1.467,0,2.2,0M7.509,18.456c0,.721,0,1.442,0,2.163a1.178,1.178,0,0,0,1.3,1.325q2.146.006,4.292,0a1.189,1.189,0,0,0,1.341-1.329q0-2.164-.007-4.328a1.159,1.159,0,0,0-1.248-1.27q-2.218-.009-4.437,0A1.152,1.152,0,0,0,7.51,16.256c-.006.733,0,1.467,0,2.2M1.156,32.3c0,.757-.006,1.515,0,2.272A1.147,1.147,0,0,0,2.375,35.8q2.236.013,4.472,0a1.15,1.15,0,0,0,1.236-1.244q.008-2.218,0-4.436a1.151,1.151,0,0,0-1.236-1.245q-2.218-.009-4.436,0a1.158,1.158,0,0,0-1.255,1.262c-.005.721,0,1.443,0,2.164m13.858.037c0,.745-.006,1.491,0,2.236A1.148,1.148,0,0,0,16.235,35.8q2.236.012,4.472,0a1.15,1.15,0,0,0,1.236-1.244q.009-2.218,0-4.436a1.151,1.151,0,0,0-1.236-1.244q-2.218-.009-4.436,0a1.158,1.158,0,0,0-1.255,1.264c-.005.733,0,1.467,0,2.2M32.349,35.8c.745,0,1.491.008,2.236,0A1.148,1.148,0,0,0,35.8,34.572q.01-2.236,0-4.472a1.145,1.145,0,0,0-1.22-1.223q-2.236-.011-4.472,0a1.152,1.152,0,0,0-1.233,1.247q-.008,2.218,0,4.436A1.152,1.152,0,0,0,30.113,35.8c.745.008,1.491,0,2.236,0" transform="translate(0 0)"/>
    <path id="Path_49" data-name="Path 49" d="M77.862,54.839c0,.564,0,1.077,0,1.59,0,.475-.222.728-.612.713-.347-.013-.546-.275-.544-.708,0-.563,0-1.126.008-1.689a1.03,1.03,0,0,1,1.005-1.055c.612-.017,1.224-.011,1.835,0a.576.576,0,1,1-.017,1.149c-.538.008-1.077,0-1.675,0" transform="translate(-53.607 -37.515)"/>
    <path id="Path_50" data-name="Path 50" d="M54.847,8.819c0,.576,0,1.091,0,1.605,0,.456-.219.708-.588.7s-.561-.251-.564-.688c0-.564-.007-1.128,0-1.691a1.038,1.038,0,0,1,1.06-1.078c.588-.011,1.176-.008,1.763,0a.579.579,0,1,1-.012,1.151c-.537.007-1.074,0-1.659,0" transform="translate(-37.522 -5.353)"/>
    <path id="Path_51" data-name="Path 51" d="M29.921,54.847c0,.577,0,1.092,0,1.607,0,.452-.224.712-.588.7s-.563-.261-.566-.689c0-.54,0-1.08,0-1.62A1.056,1.056,0,0,1,29.9,53.693q.828-.007,1.656,0c.426,0,.675.226.671.582s-.253.566-.684.569c-.525,0-1.05,0-1.622,0" transform="translate(-20.103 -37.522)"/>
    <path id="Path_52" data-name="Path 52" d="M8.822,100.865c0,.571,0,1.086,0,1.6,0,.459-.213.71-.583.706s-.569-.253-.571-.718c0-.552-.008-1.1,0-1.656a1.042,1.042,0,0,1,1.092-1.085c.576-.008,1.152-.007,1.728,0a.579.579,0,1,1,0,1.15c-.538.007-1.075,0-1.664,0" transform="translate(-5.356 -69.682)"/>
    <path id="Path_53" data-name="Path 53" d="M54.847,100.863c0,.575,0,1.09,0,1.605,0,.456-.219.708-.588.7s-.561-.252-.565-.688c0-.564-.007-1.128,0-1.691a1.037,1.037,0,0,1,1.061-1.078c.588-.012,1.176-.008,1.764,0a.578.578,0,1,1-.014,1.15c-.537.007-1.074,0-1.659,0" transform="translate(-37.522 -69.681)"/>
    <path id="Path_54" data-name="Path 54" d="M100.868,100.867c0,.579,0,1.095,0,1.61,0,.452-.223.706-.592.7s-.557-.254-.56-.693c0-.552-.006-1.1,0-1.656a1.045,1.045,0,0,1,1.1-1.11c.564-.007,1.128-.006,1.692,0,.423,0,.674.232.666.588s-.25.559-.654.563c-.537.006-1.074,0-1.654,0" transform="translate(-69.685 -69.684)"/>
  </g>
</svg>
