<svg id="Group_22" data-name="Group 22" xmlns="http://www.w3.org/2000/svg" xmlns:xlink="http://www.w3.org/1999/xlink" width="36.161" height="33.267" viewBox="0 0 36.161 33.267">
  <defs>
    <clipPath id="clip-path">
      <rect id="Rectangle_166" data-name="Rectangle 166" width="36.161" height="33.267"/>
    </clipPath>
  </defs>
  <g id="Group_21" data-name="Group 21" clip-path="url(#clip-path)">
    <path id="Path_55" data-name="Path 55" d="M9.689,7.857c-2.542-2.362-1.917-5.14-.4-6.623a4.314,4.314,0,0,1,5.991-.047c1.912,1.817,1.8,4.348-.325,6.676a6.107,6.107,0,0,1,3.076,4.119A6.078,6.078,0,0,1,21.152,7.84a4.4,4.4,0,0,1-1.7-4.152,4.154,4.154,0,0,1,1.453-2.633,4.333,4.333,0,0,1,5.817.142c1.859,1.79,1.757,4.045-.3,6.649.4.312.795.642,1.217.925a.8.8,0,0,0,.574.12,5.036,5.036,0,0,1,5.952,2.558,5.1,5.1,0,0,1-1.51,6.376c-.039.029-.059.082-.045.061a26.77,26.77,0,0,1,2.206,2.085,5.61,5.61,0,0,1,1.32,3.65c.014,1.079-.018,2.159.017,3.237a.917.917,0,0,1-.687,1.047,26.142,26.142,0,0,1-3.983.908,17.94,17.94,0,0,1-6.877-.54c0,.97-.031,1.857.01,2.741a1.122,1.122,0,0,1-.849,1.29,21.877,21.877,0,0,1-3.433.816,17.252,17.252,0,0,1-7.358-.565C11.628,32.1,11.6,32.033,11.6,30.6c0-.726,0-1.453,0-2.255-.841.142-1.618.316-2.4.4a19.718,19.718,0,0,1-7.38-.391,10.18,10.18,0,0,1-.982-.362A1.187,1.187,0,0,1,0,26.679C.06,25.522-.048,24.351.069,23.2A6.3,6.3,0,0,1,3.452,18.13,15.282,15.282,0,0,1,1.68,15.055a4.947,4.947,0,0,1,5.568-6.28A1.911,1.911,0,0,0,9.04,8.266a3.548,3.548,0,0,1,.649-.409M11.624,24.9c-.024-.511-.022-1.025-.078-1.533a5.031,5.031,0,0,0-4.665-4.563A4.968,4.968,0,0,0,1.6,22.828a24.875,24.875,0,0,0-.131,3.221c-.032.534.183.753.68.887a17.3,17.3,0,0,0,7.444.288c2.019-.337,2.016-.353,2.036-2.32M17.658,31.9c1.454-.13,2.528-.207,3.6-.332.423-.049.83-.225,1.251-.3.522-.1.694-.381.666-.9-.041-.78.016-1.564-.015-2.345a5.062,5.062,0,0,0-9.57-2.116c-.765,1.441-.527,2.988-.584,4.51-.019.5.168.771.641.848,1.455.238,2.911.467,4.014.643m17.06-7.114h-.024c0-.4.019-.809,0-1.212A5.07,5.07,0,0,0,30.3,18.819a4.973,4.973,0,0,0-5.471,3.659,30.028,30.028,0,0,0-.231,3.284c-.106.857.308,1.127,1.025,1.285a18.316,18.316,0,0,0,7.691.074c1.4-.286,1.4-.312,1.4-1.773,0-.189,0-.377,0-.566M26.5,9.688a4.191,4.191,0,0,0-4.457-.671,4.127,4.127,0,0,0-2.608,3.428c-.084.548.08.791.608,1a4.966,4.966,0,0,1,3.03,5.41,5.334,5.334,0,0,1-2.11,3.415l2.163,1.695a6.647,6.647,0,0,1,3.65-5.949c-3.064-2.672-2.643-6.087-.276-8.33M9.573,9.664a5.166,5.166,0,0,1-.234,8.32,6.693,6.693,0,0,1,3.714,5.982L15.2,22.28c-3.342-3.119-2.891-6.59,1.147-8.963a.79.79,0,0,0,.285-.634,4.142,4.142,0,0,0-2.487-3.6,4.207,4.207,0,0,0-4.573.585m8.566,4.785a3.625,3.625,0,1,0,3.572,3.713,3.659,3.659,0,0,0-3.572-3.713M2.932,13.732a3.541,3.541,0,0,0,3.466,3.6,3.634,3.634,0,0,0,3.76-3.6,3.736,3.736,0,0,0-3.6-3.644,3.616,3.616,0,0,0-3.628,3.637m26.752,3.6a3.557,3.557,0,0,0,3.579-3.585,3.6,3.6,0,1,0-7.207-.029,3.542,3.542,0,0,0,3.628,3.614M12.3,1.466A2.854,2.854,0,0,0,9.411,4.385a2.9,2.9,0,1,0,5.8-.1A2.881,2.881,0,0,0,12.3,1.466m11.455,0a2.836,2.836,0,0,0-2.9,2.918,2.922,2.922,0,0,0,2.915,2.859,2.893,2.893,0,0,0,2.854-2.911,2.823,2.823,0,0,0-2.865-2.865" transform="translate(0 -0.001)"/>
  </g>
</svg>
