<svg xmlns="http://www.w3.org/2000/svg" width="28.236" height="25.593" viewBox="0 0 28.236 25.593">
  <g id="home-outline" transform="translate(1.414 1)">
    <path id="Path_13" data-name="Path 13" d="M5.625,14.906V28.291a.907.907,0,0,0,.907.907h5.445V21.486a1.362,1.362,0,0,1,1.362-1.362h4.537a1.362,1.362,0,0,1,1.362,1.362V29.2h5.445a.907.907,0,0,0,.907-.907V14.906" transform="translate(-2.903 -5.606)" fill="none" stroke="#000" stroke-linecap="round" stroke-linejoin="round" stroke-width="2"/>
    <path id="Path_14" data-name="Path 14" d="M27.658,15.172,15.572,3.6a.958.958,0,0,0-1.235,0L2.25,15.172" transform="translate(-2.25 -3.376)" fill="none" stroke="#000" stroke-linecap="round" stroke-linejoin="round" stroke-width="2"/>
    <path id="Path_15" data-name="Path 15" d="M27.472,11.022V4.5H24.75V8.414" transform="translate(-6.601 -3.594)" fill="none" stroke="#000" stroke-linecap="round" stroke-linejoin="round" stroke-width="2"/>
  </g>
</svg>
