<svg id="Group_36" data-name="Group 36" xmlns="http://www.w3.org/2000/svg" xmlns:xlink="http://www.w3.org/1999/xlink" width="35.02" height="39.102" viewBox="0 0 35.02 39.102">
  <defs>
    <clipPath id="clip-path">
      <rect id="Rectangle_208" data-name="Rectangle 208" width="35.02" height="39.102" fill="none"/>
    </clipPath>
  </defs>
  <g id="Group_35" data-name="Group 35" clip-path="url(#clip-path)">
    <path id="Path_99" data-name="Path 99" d="M14.352,9.474c-.2,0-.369.009-.537,0a.591.591,0,0,1-.525-.917,1.517,1.517,0,0,1,.466-.521.659.659,0,0,0,.3-.656c-.013-.971-.01-1.943,0-2.914a2.381,2.381,0,0,1,1.157-2.105A14.673,14.673,0,0,1,20.149.176a8.611,8.611,0,0,1,5.623.791c.884.422,1.729.934,2.57,1.439a2.233,2.233,0,0,1,1.1,2.013q.016,1.556,0,3.111a.536.536,0,0,0,.251.521,1.8,1.8,0,0,1,.467.471.624.624,0,0,1-.537,1.02c-.143.007-.286,0-.468,0-.039.476-.083.929-.109,1.383a.324.324,0,0,0,.114.225,1.523,1.523,0,0,1,.43,1.889A18.721,18.721,0,0,1,28.64,14.8a5.057,5.057,0,0,0-.341.655,8.085,8.085,0,0,1-1.493,2.525.984.984,0,0,0-.212.55c-.029.484.016.973-.018,1.456a.6.6,0,0,0,.449.683c1.7.726,3.39,1.469,5.066,2.244a4.89,4.89,0,0,1,2.792,3.408,4.646,4.646,0,0,1,.13,1.09c.011,1.917,0,3.833,0,5.75,0,.646-.173.82-.812.82q-9.885,0-19.771-.008a.585.585,0,0,0-.665.449A6.771,6.771,0,0,1,7.85,39.056a6.732,6.732,0,0,1-6.715-3.251,7.074,7.074,0,0,1,4.93-10.824,7.362,7.362,0,0,1,2.776.061.435.435,0,0,0,.378-.135,5.829,5.829,0,0,1,3-2.431c1.466-.669,2.951-1.3,4.435-1.925.236-.1.384-.2.326-.479a.267.267,0,0,1,0-.079,3.477,3.477,0,0,0-.854-2.948,7.007,7.007,0,0,1-.9-1.772c-.08-.163-.172-.32-.266-.475a14.3,14.3,0,0,1-.949-1.578,1.7,1.7,0,0,1,.356-2.157.438.438,0,0,0,.084-.315c-.021-.4-.062-.809-.1-1.276M14.21,32.731H33.835c0-1.92.062-3.812-.024-5.7a3.139,3.139,0,0,0-1.566-2.606c-1.172-.685-2.435-1.213-3.65-1.826a.469.469,0,0,0-.705.173c-1.052,1.409-2.13,2.8-3.2,4.193a.692.692,0,0,1-1.188.1c-.135-.124-.268-.252-.4-.377L21.748,25.43l-1.731,1.615c-.507.473-.8.449-1.227-.1-1.086-1.416-2.167-2.836-3.263-4.244-.079-.1-.3-.208-.391-.167-1.238.567-2.474,1.141-3.69,1.753a2.785,2.785,0,0,0-1.277,1.308,7.179,7.179,0,0,1,4.04,7.139m1.315-23.1c.039.581.07,1.129.115,1.676a.587.587,0,0,1-.36.668.479.479,0,0,0-.281.679,4.161,4.161,0,0,0,.488.977,8.826,8.826,0,0,1,1.019,1.847,5.485,5.485,0,0,0,5.945,3.434,5.335,5.335,0,0,0,4.6-3.67,5.755,5.755,0,0,1,.733-1.373,6.367,6.367,0,0,0,.655-1.2.453.453,0,0,0-.231-.662.644.644,0,0,1-.432-.746c.042-.533.088-1.067.134-1.631Zm-.258-2.372a14.675,14.675,0,0,1,12.9,0c0-.888-.012-1.727,0-2.566A1.362,1.362,0,0,0,27.486,3.4c-.787-.467-1.57-.952-2.4-1.342a7.365,7.365,0,0,0-3.994-.8,11.85,11.85,0,0,0-5.349,2.227,1.11,1.11,0,0,0-.475.95c-.011.917,0,1.835,0,2.821M12.475,34.414a5.762,5.762,0,0,0-.439-5.515,5.676,5.676,0,0,0-4.344-2.736c0,1.2-.005,2.338.01,3.478,0,.091.124.214.22.264a2.38,2.38,0,0,1,1.419,2.455.4.4,0,0,0,.13.313c.979.581,1.969,1.145,3,1.742m-.59,1.02c-1.009-.582-1.993-1.155-2.987-1.712a.39.39,0,0,0-.336.046,2.173,2.173,0,0,1-2.822.01.4.4,0,0,0-.336-.063c-1,.561-2,1.139-2.994,1.715a5.807,5.807,0,0,0,9.475,0M6.524,26.149A5.937,5.937,0,0,0,1.77,34.4c.125-.068.194-.1.262-.143.9-.516,1.8-1.026,2.684-1.557a.464.464,0,0,0,.174-.363A2.327,2.327,0,0,1,6.3,29.889c.1-.045.217-.17.218-.259.015-1.138.01-2.276.01-3.481m11.627-6.916c0,.346.017.656,0,.963a.734.734,0,0,0,.3.671c1.015.87,2.01,1.763,3.014,2.646.1.088.21.166.311.244,1.166-1.026,2.288-2.012,3.406-3a.436.436,0,0,0,.165-.247c.017-.411.008-.823.008-1.258a7.371,7.371,0,0,1-7.193-.017M27.49,8.283c-2.509-1.792-9.664-1.776-11.568,0ZM16.5,22l2.993,3.906,1.345-1.279c-1.12-1-2.212-1.977-3.311-2.945a.323.323,0,0,0-.275-.026c-.242.093-.472.213-.752.344m10.444-.058a4.386,4.386,0,0,1-.557-.272c-.254-.172-.427-.109-.642.089-.956.876-1.929,1.733-2.9,2.6-.073.065-.135.143-.217.23l1.323,1.259,2.987-3.9M8.174,32a1.023,1.023,0,0,0-1.023-1.02,1.076,1.076,0,0,0-1.042,1.059,1.02,1.02,0,0,0,1.028,1.012A1.041,1.041,0,0,0,8.174,32" transform="translate(0 0)"/>
    <path id="Path_100" data-name="Path 100" d="M264.9,358.078c-.631.009-.87-.142-.9-.557-.031-.494.253-.677,1.035-.666.539.007.821.258.782.694a.545.545,0,0,1-.492.525,2.487,2.487,0,0,1-.429,0" transform="translate(-243.168 -328.687)"/>
    <path id="Path_101" data-name="Path 101" d="M264.911,389.739c-.67,0-.945-.2-.915-.67s.36-.619,1.174-.564a.615.615,0,0,1,.646.673c-.027.409-.268.559-.9.561" transform="translate(-243.157 -357.83)"/>
  </g>
</svg>
