<?xml version="1.0" standalone="no"?>
<!DOCTYPE svg PUBLIC "-//W3C//DTD SVG 20010904//EN"
 "http://www.w3.org/TR/2001/REC-SVG-20010904/DTD/svg10.dtd">
<svg version="1.0" xmlns="http://www.w3.org/2000/svg"
 width="1280.000000pt" height="1262.000000pt" viewBox="0 0 1280.000000 1262.000000"
 preserveAspectRatio="xMidYMid meet">

<g transform="translate(0.000000,1262.000000) scale(0.100000,-0.100000)"
fill="#000000" stroke="none">
<path d="M0 6310 l0 -6310 4393 1 c3828 0 4385 2 4339 15 -103 27 -174 85
-247 198 -32 50 -38 54 -82 60 -26 4 -69 14 -94 22 -46 15 -200 106 -250 149
-17 13 -48 25 -80 29 -29 4 -77 19 -107 33 -30 14 -63 23 -75 20 -12 -3 -49
-13 -82 -22 -124 -35 -251 -2 -356 93 -41 37 -56 44 -82 41 -18 -1 -84 -3
-147 -3 -104 0 -124 3 -208 32 -51 18 -121 47 -155 64 -61 31 -65 32 -177 29
-70 -1 -134 -8 -164 -18 -36 -11 -73 -14 -138 -11 -79 5 -101 2 -185 -23 -133
-40 -223 -40 -345 1 l-91 31 -14 -21 c-27 -38 -112 -98 -170 -120 -71 -27
-181 -29 -252 -5 l-50 16 -43 -29 c-65 -44 -161 -91 -222 -106 -30 -8 -103
-18 -163 -22 l-108 -7 -78 -55 c-114 -79 -185 -102 -326 -102 l-113 0 -60 -55
c-33 -31 -81 -66 -106 -79 -47 -24 -171 -59 -271 -78 -87 -17 -189 11 -272 75
-24 18 -81 61 -126 95 -184 141 -232 325 -135 520 l26 53 -130 127 c-166 161
-189 203 -189 337 0 76 4 99 26 145 14 30 123 193 242 362 120 168 217 310
217 315 0 4 -27 51 -60 103 -34 52 -66 113 -72 135 -6 22 -14 43 -17 47 -3 3
-42 11 -85 17 -48 7 -97 21 -122 35 -24 13 -62 27 -86 31 -78 12 -297 64 -332
79 -49 20 -112 80 -135 130 -41 84 -21 218 42 285 30 32 122 81 151 81 7 0 37
28 66 61 64 74 113 98 195 99 33 0 78 7 100 15 22 8 54 14 70 15 37 0 123 44
147 76 21 27 113 74 144 74 12 0 37 14 55 31 19 16 44 37 57 46 13 9 32 32 42
52 26 52 101 117 150 132 26 8 51 25 66 44 13 18 24 34 24 36 0 2 -33 3 -74 1
-108 -5 -145 8 -213 77 l-58 58 -102 5 c-153 9 -235 54 -296 162 -21 37 -26
40 -92 53 -83 17 -144 50 -182 100 -48 61 -62 73 -92 73 -47 0 -155 38 -199
70 -45 32 -86 90 -99 138 -8 28 -56 76 -193 191 -49 41 -100 125 -100 165 0 8
-24 31 -53 53 -57 44 -98 108 -118 186 -10 42 -17 51 -53 68 -72 33 -134 103
-159 178 -13 40 -20 47 -65 64 -63 24 -124 75 -158 132 -18 32 -35 47 -62 56
-73 24 -179 77 -212 106 -29 25 -46 31 -101 35 -81 7 -142 33 -194 85 -34 34
-52 42 -120 58 -270 60 -375 145 -375 305 0 114 59 200 173 250 62 28 265 84
377 106 79 14 102 23 134 50 60 51 117 66 248 64 82 -2 125 2 157 14 26 10 75
16 122 16 59 0 86 5 111 19 88 52 199 48 327 -10 47 -22 75 -29 97 -24 45 8
128 -12 214 -52 67 -32 85 -36 165 -37 114 -2 149 -19 265 -130 47 -45 102
-89 122 -99 48 -21 103 -71 174 -158 32 -39 71 -76 89 -84 18 -7 51 -30 74
-50 l41 -37 50 12 c51 12 128 7 163 -11 14 -8 17 -5 17 17 0 16 -15 43 -39 71
-51 57 -75 128 -68 199 l5 53 -66 43 c-140 90 -190 156 -199 259 l-6 58 -64
37 c-116 69 -193 171 -193 260 0 41 -1 41 -77 87 -43 25 -98 63 -122 83 -49
42 -101 118 -101 146 0 10 -6 20 -12 22 -95 26 -130 41 -166 72 -47 40 -77 90
-87 147 -6 28 -18 45 -54 71 -68 51 -136 125 -162 176 -12 25 -44 66 -70 91
-56 55 -77 93 -86 156 -5 39 -16 59 -59 109 -70 79 -94 133 -94 210 0 49 -6
72 -32 119 -25 47 -32 71 -34 129 -2 53 -9 86 -31 131 -24 52 -28 73 -29 155
-1 68 -9 122 -27 190 -54 196 -75 534 -41 649 32 108 131 181 245 181 127 0
194 -55 269 -218 93 -202 142 -284 217 -359 40 -41 73 -78 73 -83 0 -5 24 -20
53 -33 28 -14 69 -41 89 -61 29 -28 45 -36 74 -36 62 0 113 -22 164 -69 l49
-46 83 0 c100 0 155 -25 232 -104 l49 -50 62 6 c73 7 146 -12 250 -64 67 -35
74 -36 165 -34 88 2 99 0 156 -28 68 -35 113 -76 187 -173 40 -52 58 -68 77
-68 66 0 166 -74 216 -158 11 -19 26 -32 39 -32 35 0 122 -47 159 -86 19 -20
53 -78 76 -128 l42 -92 50 -12 c85 -20 172 -105 252 -244 22 -37 39 -53 79
-71 57 -26 65 -22 66 32 1 14 15 55 32 91 30 66 30 68 16 111 -44 130 -47 274
-7 367 20 45 21 56 10 104 -35 164 -18 347 41 442 30 49 30 50 19 118 -20 116
4 209 75 286 l36 41 -27 73 c-50 137 -35 268 40 349 22 24 24 36 28 145 4 92
10 132 27 177 34 88 89 150 164 187 62 30 65 34 84 90 40 115 124 212 209 240
33 11 34 13 34 64 0 118 59 259 131 315 l46 36 5 95 c8 128 44 204 122 255 21
14 24 26 30 108 3 51 5 128 5 173 0 44 5 93 11 108 7 19 7 33 0 46 -33 62 -32
149 4 315 8 39 26 147 40 242 25 173 41 223 85 270 25 27 74 53 116 64 17 4
-1425 7 -3202 8 l-3233 1 0 -6310z"/>
<path d="M6535 12611 c88 -22 124 -59 252 -266 55 -88 125 -199 155 -246 77
-119 98 -162 110 -231 7 -38 22 -77 43 -109 19 -27 43 -75 54 -106 12 -32 26
-65 31 -73 27 -41 58 -109 65 -140 11 -53 31 -86 79 -130 69 -64 106 -176 106
-326 0 -42 5 -65 15 -74 8 -6 23 -36 35 -66 25 -69 27 -216 4 -308 -14 -58
-14 -66 0 -95 27 -52 37 -126 26 -199 -9 -64 -9 -69 21 -129 26 -51 32 -77 37
-153 3 -52 0 -121 -8 -163 l-12 -72 33 -53 c27 -45 33 -64 37 -131 5 -89 -9
-147 -62 -256 -33 -67 -33 -71 -16 -90 56 -64 69 -202 31 -318 l-22 -65 28
-54 c26 -49 28 -63 31 -188 2 -93 -1 -157 -11 -205 l-15 -70 29 -60 c50 -104
59 -221 28 -363 -9 -43 -9 -44 32 -80 23 -20 71 -65 105 -99 55 -53 71 -63
120 -73 30 -7 57 -10 58 -8 2 1 19 30 39 64 72 120 152 189 244 208 30 7 34
13 57 90 31 99 71 157 137 198 34 22 49 38 49 53 0 32 48 122 77 145 24 19 27
30 35 128 15 178 50 272 123 328 24 18 48 54 74 108 51 107 92 161 151 198 38
23 59 47 95 109 79 136 126 176 232 199 42 9 57 19 96 65 53 61 126 101 202
111 29 4 67 18 90 34 67 45 123 70 172 76 28 4 75 22 113 44 69 40 121 60 152
60 11 0 146 63 301 139 303 150 337 161 429 141 166 -37 250 -213 177 -370
-47 -99 -180 -266 -299 -375 -43 -38 -69 -72 -76 -95 -19 -60 -41 -95 -83
-136 -32 -29 -43 -49 -51 -91 -7 -32 -25 -71 -45 -97 -29 -38 -32 -49 -28 -88
8 -67 -19 -146 -68 -202 l-41 -46 12 -51 c15 -62 8 -144 -16 -190 -13 -27 -17
-61 -18 -159 -1 -111 -4 -133 -29 -201 l-28 -76 42 -62 c39 -55 44 -69 47
-130 5 -87 -22 -154 -85 -212 l-45 -41 11 -43 c31 -124 2 -199 -137 -359 -58
-66 -60 -70 -64 -135 -7 -96 -35 -149 -128 -244 -78 -79 -80 -83 -80 -130 0
-93 -51 -164 -194 -272 -66 -50 -76 -61 -76 -89 0 -17 -11 -55 -25 -85 -14
-30 -24 -54 -23 -55 2 -1 28 -13 58 -28 54 -27 56 -27 110 -13 70 19 127 19
179 0 37 -13 50 -13 104 0 83 20 187 19 237 -1 39 -16 46 -15 116 1 143 34
248 6 326 -85 l34 -39 93 9 c90 10 156 3 203 -22 12 -6 33 -1 70 18 38 20 74
28 126 32 68 4 77 2 146 -32 62 -30 78 -35 101 -26 14 5 48 10 75 10 40 0 60
7 111 40 90 58 173 75 245 50 26 -9 44 -4 146 44 157 74 245 100 315 93 180
-19 276 -214 189 -390 -44 -90 -237 -339 -298 -385 -10 -7 -18 -25 -18 -41 0
-40 -46 -125 -89 -164 -21 -18 -63 -49 -94 -68 -34 -20 -61 -44 -68 -61 -28
-68 -119 -152 -242 -226 -39 -23 -80 -58 -97 -81 -39 -53 -88 -84 -175 -112
-53 -16 -81 -32 -116 -65 -52 -51 -119 -80 -209 -90 -40 -4 -71 -14 -84 -26
-32 -30 -122 -58 -186 -58 -36 0 -76 -8 -106 -20 -40 -18 -65 -20 -173 -18
-115 3 -129 1 -161 -19 -56 -35 -122 -46 -207 -33 l-74 12 -41 -37 c-48 -44
-105 -71 -171 -80 -41 -6 -52 -13 -76 -49 -64 -92 -131 -126 -260 -133 -106
-5 -133 -11 -129 -25 2 -6 21 -17 43 -25 21 -7 52 -24 69 -37 17 -13 52 -27
76 -31 64 -11 118 -40 175 -95 79 -77 156 -143 203 -175 24 -16 58 -45 75 -65
18 -20 54 -51 80 -70 50 -35 103 -106 114 -150 13 -55 68 -168 108 -220 58
-74 76 -113 82 -174 10 -99 -41 -204 -122 -251 -93 -55 -199 -43 -364 39 -38
19 -90 36 -122 39 -31 4 -72 13 -91 21 -19 9 -66 15 -109 14 -46 0 -89 6 -116
17 -43 17 -109 17 -106 0 1 -9 96 -322 233 -770 89 -289 93 -309 94 -425 1
-153 -32 -264 -107 -362 -37 -48 -37 -48 -26 -100 7 -33 9 -90 5 -153 -4 -55
-6 -142 -6 -193 2 -149 -40 -235 -156 -324 -45 -33 -67 -60 -94 -111 -42 -81
-74 -116 -189 -205 -47 -37 -91 -72 -98 -78 -23 -22 -103 -56 -150 -64 -27 -4
844 -8 1935 -9 l1982 -1 0 6310 0 6310 -3147 -1 c-1732 -1 -3134 -4 -3118 -8z"/>
<path d="M6475 12324 c-5 -49 -45 -301 -62 -394 l-5 -25 186 0 c102 0 186 4
186 8 0 5 -35 63 -78 130 -43 67 -105 165 -137 217 -82 134 -82 134 -90 64z"/>
<path d="M6890 11621 c0 -6 4 -13 10 -16 6 -3 7 1 4 9 -7 18 -14 21 -14 7z"/>
<path d="M10617 9818 c-65 -33 -116 -62 -113 -65 2 -2 18 3 35 11 31 17 60 22
47 9 -4 -5 -22 -13 -39 -20 -18 -6 -25 -12 -17 -12 8 0 33 8 54 18 32 15 36
20 20 23 -18 5 -18 5 0 13 12 5 21 3 27 -6 14 -22 5 -33 -34 -42 -40 -10 -45
-18 -22 -37 8 -7 15 -19 15 -26 0 -15 10 -17 34 -8 24 9 20 44 -4 44 -11 0
-20 4 -20 10 0 13 65 24 84 13 14 -8 11 -15 -18 -48 -19 -22 -44 -51 -55 -65
-16 -19 -20 -21 -21 -9 0 9 -7 19 -15 23 -8 3 -15 16 -15 28 -1 30 -20 55 -53
67 -22 9 -39 4 -102 -27 -72 -36 -91 -52 -60 -52 8 0 15 4 15 8 0 9 65 42 83
42 7 0 -1 -8 -16 -19 -24 -15 -26 -19 -12 -25 24 -9 32 -7 15 4 -21 14 5 13
31 -1 16 -8 25 -7 40 7 17 16 19 16 25 0 8 -22 6 -23 -47 -39 -48 -15 -69 -12
-69 8 0 7 -7 16 -16 19 -22 8 -26 8 -19 -3 3 -5 1 -12 -5 -16 -17 -10 -11 -25
10 -25 11 0 20 -7 20 -15 0 -20 -14 -19 -35 1 -21 22 -105 11 -105 -14 0 -12
3 -13 12 -4 16 16 28 15 28 -2 0 -20 112 -29 123 -10 4 8 26 17 48 20 23 4 46
15 52 25 15 24 22 24 48 -2 20 -20 20 -22 5 -38 -16 -15 -17 -15 -10 2 10 28
-33 21 -62 -10 -20 -22 -24 -23 -19 -9 6 19 5 19 -13 3 -10 -9 -23 -17 -28
-17 -5 0 -17 -9 -27 -20 -18 -21 -15 -40 5 -40 6 0 8 3 4 7 -6 6 99 73 116 73
4 0 -7 -15 -25 -33 -18 -19 -36 -31 -41 -29 -5 3 -6 0 -2 -6 4 -7 2 -12 -5
-12 -7 0 -21 -8 -31 -17 -17 -15 -21 -15 -29 -3 -9 13 -10 13 -6 0 3 -14 -14
-40 -28 -40 -4 0 -13 -7 -21 -15 -17 -16 -39 -21 -30 -6 3 5 -1 12 -9 15 -20
7 -31 -20 -15 -39 12 -14 25 -10 64 17 103 74 156 117 231 193 102 103 245
298 178 244 -11 -10 -14 -10 -9 -1 4 7 2 12 -4 12 -6 0 -10 -8 -9 -17 4 -28
-22 -73 -43 -73 -24 0 -23 21 2 27 21 6 26 18 11 27 -8 5 -8 27 -1 46 1 3 6
-8 10 -25 l8 -30 1 33 c1 30 3 32 27 26 19 -5 25 -4 20 5 -13 21 -51 10 -169
-51z m76 15 c-7 -2 -13 -9 -13 -15 0 -5 -7 -17 -16 -25 -13 -14 -17 -14 -25
-2 -11 18 -12 32 0 25 4 -3 17 1 27 9 10 8 24 14 29 14 6 0 4 -3 -2 -6z m-206
-126 c-20 -30 -36 -32 -34 -5 1 27 14 38 34 31 12 -5 12 -9 0 -26z"/>
<path d="M10660 9725 c-7 -9 -11 -17 -9 -20 3 -2 10 5 17 15 14 24 10 26 -8 5z"/>
<path d="M1811 9663 c-13 -26 -7 -234 13 -375 16 -124 34 -187 84 -305 30 -70
30 -72 10 -75 -59 -9 -42 -70 57 -204 30 -41 55 -76 55 -80 0 -3 -18 -3 -40 1
-78 13 -60 -29 80 -189 28 -32 50 -59 50 -62 0 -3 -23 -4 -52 -3 -83 5 -77
-16 39 -134 37 -37 86 -80 110 -95 49 -31 54 -42 19 -42 -33 0 -76 -17 -76
-29 0 -15 48 -37 95 -45 46 -8 197 -85 203 -103 3 -10 -8 -11 -45 -6 -80 12
-117 10 -121 -7 -6 -33 145 -156 229 -185 22 -8 37 -10 34 -5 -3 6 -12 10 -20
10 -14 0 -8 37 15 88 5 12 14 32 19 45 5 12 18 42 29 67 11 25 22 55 26 67 4
11 13 27 21 33 8 7 15 19 15 26 0 41 169 344 298 533 l64 93 -48 49 c-27 27
-54 49 -60 49 -24 0 -73 -52 -95 -100 l-23 -50 -22 21 c-13 12 -49 63 -80 113
-70 111 -82 126 -105 126 -10 0 -29 -15 -43 -32 l-25 -33 -84 90 c-47 50 -88
87 -91 84 -3 -3 4 -16 16 -29 l22 -23 -27 7 c-16 4 -27 2 -27 -4 0 -11 -51 -2
-60 10 -9 12 -121 12 -136 -1 -8 -6 -18 -9 -21 -5 -4 4 -1 11 7 16 10 7 -7 10
-52 10 -39 0 -68 4 -68 10 0 6 18 10 40 10 33 0 40 3 40 20 0 11 5 20 10 20 6
0 10 -9 10 -20 0 -13 7 -20 20 -20 18 0 19 5 13 47 -5 40 -4 45 10 40 8 -3 18
0 20 8 7 17 -2 25 -27 24 -21 0 -21 -1 -1 -10 15 -7 9 -8 -20 -4 -26 4 -35 2
-26 -3 8 -6 9 -12 3 -16 -6 -3 -12 -1 -14 6 -2 6 -24 12 -49 12 -39 1 -44 4
-47 25 -2 13 1 27 7 31 6 3 13 25 15 48 3 23 7 46 11 51 3 6 -3 19 -13 29 -10
10 -24 32 -31 50 -7 18 -18 32 -23 32 -5 0 -6 5 -3 10 8 12 61 -39 57 -54 -2
-5 1 -12 6 -15 5 -3 21 -27 35 -53 21 -37 23 -48 12 -48 -9 0 -15 10 -15 25 0
14 -5 25 -11 25 -7 0 -8 -11 -4 -30 4 -19 3 -30 -4 -30 -16 0 -13 -14 7 -36
29 -31 55 -40 100 -34 31 5 42 3 42 -7 0 -7 3 -13 8 -13 4 0 19 -21 32 -47 35
-65 71 -106 84 -93 16 16 26 12 19 -7 -3 -10 -3 -15 1 -12 4 4 9 19 12 35 5
28 5 28 -15 10 -23 -21 -36 -16 -57 27 -9 18 -20 34 -23 37 -3 3 -22 29 -41
58 -19 28 -40 50 -46 48 -6 -2 -15 -1 -20 2 -11 8 -53 66 -70 97 -6 11 -24 45
-41 75 -27 49 -83 161 -146 289 -25 51 -41 61 -56 34z m31 -36 c-5 -7 -9 -40
-8 -74 0 -34 -3 -59 -8 -56 -5 3 -7 -6 -4 -20 3 -15 2 -24 -2 -22 -8 5 -2 179
6 205 5 12 7 12 15 -3 7 -11 7 -22 1 -30z m43 -81 c9 -26 14 -50 11 -54 -10
-9 -16 2 -25 49 -5 24 -12 53 -16 64 -5 16 -5 17 4 4 5 -8 17 -37 26 -63z
m-38 2 c-3 -8 -6 -5 -6 6 -1 11 2 17 5 13 3 -3 4 -12 1 -19z m113 -142 c0 -2
-9 -2 -21 1 -16 4 -17 8 -7 14 10 6 10 11 0 21 -6 6 -12 19 -12 27 0 9 9 -1
20 -22 11 -20 20 -39 20 -41z m-100 27 c0 -9 -6 -13 -15 -9 -10 4 -15 -1 -16
-17 l-2 -22 -4 22 c-4 23 16 55 30 46 4 -2 7 -11 7 -20z m78 -108 c1 -14 -3
-25 -8 -25 -11 0 -14 33 -3 43 9 9 8 10 11 -18z m-38 -47 c0 -23 -3 -29 -9
-19 -8 12 -4 51 5 51 2 0 4 -15 4 -32z m-33 -78 c10 -28 13 -76 4 -60 -5 8
-11 35 -15 60 -3 25 -3 38 0 30 3 -8 8 -22 11 -30z m223 -26 c0 -7 17 -16 38
-22 36 -10 37 -10 6 -11 -17 -1 -39 7 -51 18 -11 10 -29 21 -39 24 -10 3 -4 5
14 4 17 -1 32 -7 32 -13z m-173 -26 c-3 -8 -6 -5 -6 6 -1 11 2 17 5 13 3 -3 4
-12 1 -19z m-6 -46 c-6 -2 -11 -11 -11 -20 -1 -15 -3 -14 -15 2 -8 11 -15 25
-15 30 0 6 5 4 10 -4 8 -13 10 -12 10 4 0 16 2 17 16 5 10 -8 12 -15 5 -17z
m12 -88 c-9 -25 -24 7 -16 36 l6 24 8 -22 c5 -12 6 -29 2 -38z"/>
<path d="M10245 9633 c-39 -19 -74 -39 -79 -44 -6 -5 -17 -9 -25 -9 -14 0 -14
1 -1 10 12 7 12 10 1 10 -38 0 -235 -124 -228 -144 6 -19 45 -18 65 2 15 15
24 17 37 9 14 -7 22 -5 36 14 10 13 17 24 16 25 -1 0 -21 -1 -45 -4 -34 -3
-45 -9 -52 -28 -9 -24 -50 -35 -50 -14 0 6 6 10 13 10 8 0 22 9 32 20 10 11
24 20 32 20 7 0 13 4 13 8 0 15 96 52 134 52 25 0 35 4 30 11 -4 8 1 9 16 4
17 -5 21 -4 15 6 -6 9 -2 11 13 7 15 -4 19 -2 15 8 -3 9 4 16 23 20 30 6 71
31 63 38 -2 2 -36 -11 -74 -31z"/>
<path d="M10060 9531 c0 -5 7 -14 15 -21 12 -10 15 -10 15 3 0 8 -7 17 -15 21
-8 3 -15 2 -15 -3z"/>
<path d="M10035 9520 c-3 -5 -1 -10 4 -10 6 0 11 5 11 10 0 6 -2 10 -4 10 -3
0 -8 -4 -11 -10z"/>
<path d="M9833 9480 c-26 -11 -118 -77 -159 -115 -32 -30 -60 -32 -67 -5 -7
28 -31 25 -62 -7 -32 -34 -135 -193 -134 -208 0 -5 6 -2 12 9 7 10 22 34 35
53 12 18 22 38 22 43 0 21 18 8 25 -17 4 -16 9 -23 12 -16 2 7 0 20 -6 31 -7
13 -6 27 5 47 19 37 63 77 78 71 7 -3 7 -5 -1 -5 -7 -1 -13 -5 -13 -11 0 -5 3
-9 8 -8 4 0 15 -2 25 -7 19 -8 77 12 77 27 0 6 9 8 19 5 14 -3 18 -1 14 9 -3
8 9 21 29 33 18 11 41 28 51 38 16 15 19 16 27 3 5 -8 10 -10 10 -5 0 6 7 2
14 -8 12 -15 15 -15 26 -2 10 12 9 15 -6 15 -11 0 -26 5 -34 11 -11 8 -6 9 22
6 29 -4 36 -3 31 9 -6 16 -27 17 -60 4z"/>
<path d="M10054 9456 c-4 -10 -18 -16 -35 -16 -19 0 -29 -5 -29 -15 0 -9 9
-15 24 -15 13 0 29 7 36 15 7 8 19 15 27 15 8 0 13 5 11 12 -7 19 -27 21 -34
4z"/>
<path d="M9958 9423 c7 -3 16 -2 19 1 4 3 -2 6 -13 5 -11 0 -14 -3 -6 -6z"/>
<path d="M9740 9390 c0 -5 5 -10 10 -10 6 0 10 5 10 10 0 6 -4 10 -10 10 -5 0
-10 -4 -10 -10z"/>
<path d="M10237 9383 c-4 -3 -7 -15 -7 -25 0 -12 7 -18 24 -18 22 0 36 16 36
41 0 10 -43 12 -53 2z"/>
<path d="M10313 9343 c-24 -5 -32 -36 -13 -48 15 -9 12 -25 -5 -25 -8 0 -22
11 -31 25 -19 28 -34 33 -34 9 0 -9 9 -18 19 -21 11 -3 22 -11 25 -19 6 -17 1
-17 -24 -4 -22 12 -73 3 -64 -11 10 -16 -29 -9 -41 7 -9 13 -18 15 -41 7 l-29
-10 33 -7 c17 -4 32 -12 32 -17 0 -17 37 -9 55 11 19 21 41 28 29 9 -4 -8 1
-9 17 -4 20 6 22 5 12 -6 -23 -24 -14 -31 15 -11 15 10 35 22 45 25 13 5 16
13 12 27 -4 12 -2 20 5 20 6 0 8 -4 5 -10 -3 -5 0 -10 8 -10 15 0 63 47 55 55
-2 3 -13 -4 -23 -15 -23 -25 -31 -25 -38 0 -4 17 -2 20 13 15 10 -3 21 -1 25
5 6 10 -19 11 -62 3z"/>
<path d="M9480 9215 c0 -18 19 -40 26 -32 4 4 0 15 -9 24 -9 10 -17 13 -17 8z"/>
<path d="M10168 9190 c-29 -24 -43 -29 -64 -24 -19 5 -25 4 -20 -5 4 -6 14
-11 22 -11 8 0 14 -5 14 -11 0 -6 -9 -8 -20 -4 -21 7 -25 -13 -5 -27 6 -4 1
-8 -10 -8 -19 -1 -19 -1 -2 -14 19 -15 23 -42 5 -48 -15 -5 -3 -38 14 -38 9 0
8 3 -2 10 -12 7 -9 11 15 20 20 7 35 21 43 42 9 24 9 29 0 20 -15 -15 -48 -16
-48 -2 0 6 6 10 13 10 8 0 7 4 -3 11 -11 7 -4 8 25 3 50 -8 51 -10 34 -31 -12
-15 -12 -16 4 -10 10 4 21 7 23 7 2 0 4 7 4 16 0 11 5 14 16 10 9 -3 18 -6 21
-6 3 0 -14 -14 -38 -32 -24 -17 -55 -42 -69 -56 -14 -13 -34 -28 -45 -32 -11
-4 -129 -11 -262 -15 -260 -8 -276 -12 -232 -58 56 -59 239 -313 309 -429 19
-32 39 -58 45 -57 5 0 39 10 75 22 42 14 66 28 68 39 4 23 -50 56 -108 64 -62
9 -66 13 -33 33 39 25 233 233 233 252 0 25 -35 39 -96 39 -35 0 -64 4 -64 9
0 14 86 95 163 154 37 29 67 57 67 64 0 14 -47 29 -57 19 -3 -3 -12 -1 -19 4
-6 6 -16 10 -20 9 -47 -8 -42 11 11 44 49 31 63 47 43 47 -7 0 -30 -14 -50
-30z"/>
<path d="M10090 9198 l-25 -10 29 -9 c35 -10 36 -9 27 12 -5 13 -11 15 -31 7z"/>
<path d="M2166 9079 c-11 -47 1 -78 30 -79 16 0 27 32 15 39 -5 4 -17 19 -25
35 l-15 29 -5 -24z m39 -57 c-6 -7 -35 18 -35 31 0 5 9 2 20 -8 11 -10 18 -20
15 -23z"/>
<path d="M9478 9080 c12 -11 24 -20 27 -20 3 0 0 9 -7 20 -7 11 -19 20 -27 20
-11 0 -9 -6 7 -20z"/>
<path d="M9585 9010 c4 -6 11 -8 16 -5 14 9 11 15 -7 15 -8 0 -12 -5 -9 -10z"/>
<path d="M9550 9003 c0 -13 29 -38 35 -31 3 3 -4 13 -15 23 -11 10 -20 13 -20
8z"/>
<path d="M9047 8922 c-30 -32 -89 -174 -111 -265 l-22 -89 -16 41 c-28 71 -49
50 -67 -66 -16 -102 -14 -131 10 -156 11 -12 55 -67 98 -122 219 -278 391
-597 513 -945 39 -113 100 -356 119 -472 6 -43 16 -78 20 -78 5 0 48 38 95 84
112 108 111 120 -9 124 -48 1 -87 6 -87 10 0 4 20 18 44 31 70 36 168 122 256
223 121 139 119 168 -6 168 -41 0 -74 3 -74 6 0 3 34 51 76 107 l75 100 -20
50 c-12 27 -21 56 -21 63 0 9 -12 14 -36 14 l-36 0 16 25 c9 14 23 37 32 53
14 23 14 25 0 8 -14 -18 -18 -14 -59 75 -24 52 -65 132 -92 179 -26 47 -53 94
-59 106 -60 109 -253 387 -330 474 -17 20 -44 53 -61 74 -16 21 -59 70 -94
108 l-65 69 -17 -23 -18 -23 -12 33 c-13 37 -19 39 -42 14z"/>
<path d="M3360 8576 c0 -8 -3 -16 -7 -18 -5 -1 -21 -23 -37 -48 -17 -25 -35
-50 -40 -55 -19 -17 -76 -105 -76 -115 0 -6 -3 -10 -8 -10 -4 0 -12 -8 -17
-19 -36 -68 -59 -107 -65 -111 -4 -3 -31 -50 -60 -105 -29 -55 -57 -107 -61
-115 -26 -48 -99 -213 -99 -223 0 -7 -6 -21 -13 -32 -18 -25 -81 -194 -77
-204 1 -2 -4 -7 -10 -11 -9 -5 -5 -10 11 -15 44 -13 159 -68 159 -76 0 -4 -34
-13 -75 -20 -86 -14 -106 -28 -76 -56 58 -53 377 -232 442 -247 24 -5 27 -3
33 29 11 54 99 310 145 420 53 125 162 333 232 446 63 99 179 265 210 297 11
13 19 27 17 33 -8 24 -135 178 -160 193 -31 19 -72 21 -86 3 -6 -6 -13 -24
-17 -40 -4 -15 -10 -27 -14 -27 -3 0 -33 20 -66 44 -58 44 -153 96 -174 96 -6
0 -11 -6 -11 -14z"/>
<path d="M9851 8304 c0 -11 3 -14 6 -6 3 7 2 16 -1 19 -3 4 -6 -2 -5 -13z"/>
<path d="M10028 8265 c17 -35 32 -45 32 -22 0 17 -29 57 -40 57 -5 0 -2 -16 8
-35z"/>
<path d="M10021 8082 c-29 -81 -25 -92 5 -13 14 35 23 65 21 68 -2 2 -14 -23
-26 -55z"/>
<path d="M5906 8038 c-43 -33 -101 -129 -121 -202 -29 -105 -18 -202 32 -301
44 -86 107 -165 190 -235 54 -47 69 -77 33 -65 -43 14 -17 -15 58 -63 105 -69
145 -105 140 -128 -3 -15 -12 -19 -41 -18 l-37 1 22 -36 c41 -69 46 -72 82
-54 30 14 34 13 69 -9 20 -12 36 -25 37 -28 1 -16 -54 -64 -75 -65 -32 -1 -73
-40 -96 -90 l-18 -40 -17 40 c-11 26 -17 64 -16 110 l1 70 -132 61 c-91 42
-150 63 -189 68 -32 3 -58 4 -58 2 0 -2 50 -32 112 -67 61 -34 126 -75 143
-91 30 -25 33 -34 37 -100 5 -74 23 -124 60 -165 22 -24 30 -2 -79 -231 -34
-72 -36 -96 -8 -85 16 6 54 -33 55 -55 0 -7 -7 -20 -15 -29 -11 -10 -14 -25
-9 -48 3 -19 1 -35 -5 -39 -19 -12 -12 -45 14 -62 13 -9 46 -21 72 -28 25 -7
49 -18 51 -25 6 -19 -64 -5 -99 20 -17 12 -44 19 -72 19 -53 0 -69 16 -39 39
17 13 20 22 14 51 -12 56 -62 76 -185 73 -92 -2 -102 -4 -161 -37 -35 -19 -69
-43 -77 -52 -7 -9 -32 -28 -54 -42 -22 -14 -56 -41 -75 -61 -20 -20 -55 -51
-78 -70 -23 -19 -42 -41 -42 -48 0 -8 -13 -22 -30 -31 -35 -20 -41 -52 -9 -52
12 0 23 -8 26 -20 6 -23 36 -32 228 -74 151 -32 218 -43 322 -51 94 -7 87 -12
116 90 l15 50 -1 -47 c-1 -25 -4 -45 -7 -43 -10 6 -5 -34 6 -45 6 -6 51 -6
124 0 63 6 124 10 135 10 31 0 279 29 390 45 55 8 129 19 165 24 259 36 581
96 613 113 10 5 27 18 38 29 20 20 39 25 39 10 0 -5 -10 -12 -22 -16 -21 -6
-21 -8 -5 -12 30 -8 87 7 87 22 0 14 -59 75 -72 75 -4 0 -31 24 -60 53 -30 28
-70 62 -89 74 -95 62 -139 95 -139 104 0 5 11 14 25 19 27 10 41 47 30 82 -10
32 -22 38 -79 38 -43 0 -52 -4 -84 -37 -34 -37 -36 -38 -101 -35 -72 4 -106
19 -116 54 -4 13 -31 74 -61 136 -30 62 -54 114 -54 117 0 2 13 24 30 47 30
44 50 118 50 190 0 37 3 40 78 88 42 28 105 65 139 83 35 17 63 36 63 40 0 29
-192 -36 -359 -122 -11 -5 -14 -24 -12 -73 1 -43 -3 -79 -14 -104 l-16 -39
-29 47 c-33 52 -64 78 -97 78 -19 0 -73 56 -62 64 62 45 67 47 104 32 l35 -15
26 42 c15 23 31 47 36 54 7 9 1 11 -25 6 -30 -5 -36 -2 -42 18 -6 19 -1 29 31
57 22 18 72 54 112 79 73 46 92 68 47 57 -14 -3 -25 -3 -25 0 0 4 46 53 103
109 87 86 110 115 146 187 31 63 43 102 47 150 11 123 -25 236 -100 318 -72
79 -105 79 -40 0 40 -47 84 -132 84 -162 0 -16 -2 -17 -17 -5 -15 13 -16 11
-9 -11 4 -14 10 -55 13 -93 5 -61 3 -73 -26 -131 -40 -83 -140 -177 -244 -230
-65 -33 -80 -37 -116 -31 -23 4 -65 22 -93 41 -55 37 -74 38 -41 1 32 -34 62
-96 69 -143 7 -51 -22 -122 -60 -147 -22 -15 -24 -14 -45 13 -11 16 -21 33
-21 38 0 5 -9 17 -19 26 -19 17 -20 17 -37 -16 -9 -18 -25 -43 -34 -55 -16
-20 -19 -21 -39 -7 -31 22 -61 87 -61 131 0 45 26 105 65 151 15 18 25 36 22
39 -4 3 -32 -12 -62 -33 -48 -32 -64 -38 -109 -38 -44 0 -62 6 -122 43 -147
93 -211 164 -239 267 -15 53 -15 66 -2 122 8 34 10 65 6 68 -5 3 -9 0 -9 -5 0
-6 -4 -11 -9 -11 -24 0 44 148 90 195 45 48 37 61 -15 23z m1254 -1723 c-7 -8
-17 -15 -22 -15 -6 0 -5 7 2 15 7 8 17 15 22 15 6 0 5 -7 -2 -15z m-1479 -165
c-13 -11 -28 -20 -35 -20 -6 0 3 9 19 19 39 25 46 25 16 1z m822 -17 c4 -2 7
-8 7 -14 0 -15 -113 -5 -118 11 -4 10 3 11 27 7 21 -4 30 -3 26 4 -6 9 37 3
58 -8z m745 8 c11 -7 11 -9 -1 -14 -9 -3 -18 1 -21 9 -6 16 2 18 22 5z m-929
-86 c-29 -25 -55 -45 -58 -45 -3 0 -14 11 -23 25 l-18 23 58 20 c91 32 100 27
41 -23z m-779 -15 c0 -13 -5 -18 -15 -14 -11 5 -12 9 -2 20 16 18 17 17 17 -6z
m1850 -4 c0 -2 -7 -7 -16 -10 -8 -3 -12 -2 -9 4 6 10 25 14 25 6z m-1921 -61
c-35 -19 -43 -43 -22 -67 16 -18 16 -18 0 -12 -9 3 -17 10 -17 15 0 5 -7 9
-15 9 -8 0 -15 3 -15 8 1 10 71 62 84 62 6 -1 -1 -7 -15 -15z m1996 -15 c10
-11 15 -20 11 -20 -4 0 -16 9 -28 20 -12 11 -17 20 -11 20 5 0 18 -9 28 -20z
m-1450 -96 c-8 -16 -15 -24 -15 -17 0 18 24 67 27 56 2 -5 -3 -23 -12 -39z
m874 -4 c1 -13 0 -13 -9 0 -5 8 -9 24 -9 35 l0 20 9 -20 c5 -11 9 -27 9 -35z
m-496 33 c-7 -2 -19 -2 -25 0 -7 3 -2 5 12 5 14 0 19 -2 13 -5z m115 0 c-15
-2 -42 -2 -60 0 -18 2 -6 4 27 4 33 0 48 -2 33 -4z m-1128 -20 c0 -13 -59 -42
-65 -33 -3 5 7 16 22 24 32 17 43 19 43 9z"/>
<path d="M6468 6123 c7 -3 16 -2 19 1 4 3 -2 6 -13 5 -11 0 -14 -3 -6 -6z"/>
<path d="M9952 7934 c-12 -24 -20 -44 -18 -44 7 0 47 72 44 80 -2 4 -13 -12
-26 -36z"/>
<path d="M10076 7713 c-6 -14 -5 -15 5 -6 7 7 10 15 7 18 -3 3 -9 -2 -12 -12z"/>
<path d="M2586 7695 c10 -8 28 -14 39 -15 16 0 14 3 -9 15 -36 19 -56 19 -30
0z"/>
<path d="M10035 7690 c-3 -5 -2 -10 4 -10 5 0 13 5 16 10 3 6 2 10 -4 10 -5 0
-13 -4 -16 -10z"/>
<path d="M2650 7600 c-18 -12 -2 -12 25 0 13 6 15 9 5 9 -8 0 -22 -4 -30 -9z"/>
<path d="M2544 7589 c-3 -6 -1 -15 6 -19 16 -10 91 -22 97 -16 2 2 -15 7 -39
11 -58 10 -69 18 -33 26 30 7 30 7 3 8 -15 0 -30 -4 -34 -10z"/>
<path d="M2708 7533 c7 -3 16 -2 19 1 4 3 -2 6 -13 5 -11 0 -14 -3 -6 -6z"/>
<path d="M2745 7520 c3 -5 11 -10 16 -10 6 0 7 5 4 10 -3 6 -11 10 -16 10 -6
0 -7 -4 -4 -10z"/>
<path d="M3150 7043 c-30 -6 -50 -21 -50 -38 0 -28 121 -117 138 -101 3 3 3 6
0 6 -3 0 2 32 12 70 l18 70 -46 -1 c-26 -1 -58 -4 -72 -6z"/>
<path d="M1810 6460 c-12 -12 -19 -28 -16 -36 3 -8 9 -21 12 -29 8 -20 -7 -19
-111 6 -48 11 -103 19 -123 17 -32 -3 -37 -6 -36 -27 1 -21 -2 -23 -35 -17
-71 11 -249 19 -276 12 -25 -6 -27 -10 -22 -41 7 -40 -2 -45 -75 -45 -90 0
-414 -77 -490 -116 -34 -18 -36 -47 -5 -61 98 -45 294 -83 424 -83 35 0 63 -4
63 -9 0 -4 -18 -20 -40 -35 -43 -28 -51 -50 -23 -60 9 -4 89 -4 178 -1 146 6
158 5 140 -9 -59 -47 -66 -58 -52 -80 16 -24 141 -75 271 -111 49 -13 91 -26
93 -29 2 -2 -7 -15 -21 -29 -46 -46 -28 -77 56 -102 55 -16 220 -75 227 -81 2
-2 -10 -18 -27 -36 -66 -67 -51 -93 97 -166 58 -29 115 -59 125 -67 19 -14 19
-15 -7 -39 -35 -32 -43 -70 -24 -100 9 -13 57 -47 107 -76 49 -28 90 -55 90
-58 0 -4 -7 -16 -15 -26 -29 -38 -19 -72 33 -112 26 -21 72 -61 102 -90 65
-61 128 -104 152 -104 23 0 23 -5 -2 -30 -46 -46 -7 -91 83 -96 29 -2 43 -1
32 2 -28 8 -53 37 -72 82 -8 20 -16 39 -16 42 -1 11 -30 75 -36 80 -3 3 -14
28 -23 55 -9 28 -27 77 -39 110 -22 60 -91 280 -110 345 -14 53 -58 264 -74
360 -8 47 -20 114 -26 150 -6 36 -12 93 -13 125 0 33 -4 62 -7 65 -3 3 -9 100
-12 216 l-6 211 29 -6 c16 -3 41 -16 55 -29 15 -13 30 -21 33 -18 9 10 -8 22
-102 70 -122 64 -178 62 -99 -3 20 -17 34 -33 30 -37 -4 -4 -12 -2 -19 4 -25
20 -293 149 -325 156 -25 6 -36 3 -53 -14z"/>
<path d="M5661 6359 c-38 -15 -17 -22 56 -20 73 2 86 7 63 21 -19 12 -88 12
-119 -1z"/>
<path d="M2278 6313 c6 -2 18 -2 25 0 6 3 1 5 -13 5 -14 0 -19 -2 -12 -5z"/>
<path d="M2390 6270 c0 -5 7 -10 16 -10 8 0 12 5 9 10 -3 6 -10 10 -16 10 -5
0 -9 -4 -9 -10z"/>
<path d="M2541 6264 c0 -11 3 -14 6 -6 3 7 2 16 -1 19 -3 4 -6 -2 -5 -13z"/>
<path d="M2573 6266 c13 -10 17 -28 17 -88 0 -96 28 -392 40 -424 6 -14 10
-41 10 -59 0 -45 36 -233 59 -315 11 -36 26 -92 34 -125 25 -100 48 -179 57
-190 4 -5 11 -21 15 -35 12 -44 58 -165 65 -170 3 -3 12 -25 20 -50 21 -64
184 -391 209 -417 12 -12 21 -27 21 -33 0 -6 8 -22 17 -37 16 -24 20 -25 85
-19 37 3 68 4 68 1 0 -3 -17 -31 -37 -62 -26 -38 -34 -58 -25 -60 6 -3 12 -9
12 -15 0 -5 7 -17 16 -25 11 -12 12 -18 4 -23 -20 -12 29 -20 130 -20 95 -1
227 -14 237 -23 3 -3 -1 -22 -8 -42 -10 -26 -10 -40 -2 -53 16 -25 98 -20 207
12 115 34 116 34 109 -8 -3 -19 -1 -36 6 -40 6 -4 61 -4 122 0 l111 7 -84 86
c-105 106 -175 188 -267 311 -39 52 -75 100 -81 107 -5 6 -38 58 -73 115 -150
242 -257 473 -338 728 -40 127 -89 318 -89 349 0 9 -11 33 -25 52 -33 44 -156
169 -167 169 -5 0 -12 -9 -16 -20 -6 -17 -16 -8 -69 64 -77 104 -161 196 -178
196 -8 0 -15 -12 -17 -27 -3 -26 -6 -23 -52 41 -52 73 -132 156 -150 156 -6 0
-3 -7 7 -14z"/>
<path d="M2500 6261 c0 -5 5 -13 10 -16 6 -3 10 -2 10 4 0 5 -4 13 -10 16 -5
3 -10 2 -10 -4z"/>
<path d="M2272 6235 c0 -16 2 -22 5 -12 2 9 2 23 0 30 -3 6 -5 -1 -5 -18z"/>
<path d="M2335 6250 c-3 -5 1 -10 10 -10 9 0 13 5 10 10 -3 6 -8 10 -10 10 -2
0 -7 -4 -10 -10z"/>
<path d="M2430 6256 c0 -2 7 -9 15 -16 9 -7 15 -8 15 -2 0 5 -7 12 -15 16 -8
3 -15 4 -15 2z"/>
<path d="M2301 6224 c0 -11 3 -14 6 -6 3 7 2 16 -1 19 -3 4 -6 -2 -5 -13z"/>
<path d="M12153 5871 c-77 -31 -225 -101 -233 -111 -4 -5 -132 -79 -152 -88
-5 -2 -8 17 -8 42 0 33 -5 48 -15 53 -10 3 -64 -27 -142 -80 -70 -47 -130 -84
-135 -81 -4 3 -8 16 -8 30 0 14 -6 27 -14 30 -7 3 -64 -20 -127 -50 -62 -31
-114 -56 -115 -56 -1 0 -2 27 -1 60 1 64 -19 100 -55 100 -10 0 -63 -23 -118
-50 -79 -39 -234 -100 -256 -100 -15 0 2 22 31 39 46 27 54 49 28 71 -17 14
-34 15 -109 8 -146 -13 -243 -30 -255 -44 -8 -10 -8 -14 0 -14 6 0 11 5 11 12
0 6 2 9 5 7 2 -3 2 -15 -2 -27 -4 -17 -13 -22 -42 -23 -30 -2 -32 -3 -8 -6 15
-2 25 -9 22 -14 -3 -5 1 -6 9 -3 17 6 22 -11 7 -20 -4 -3 -11 -28 -14 -55 -20
-172 -152 -613 -238 -801 -17 -35 -33 -77 -36 -92 -3 -15 -10 -28 -15 -28 -5
0 -6 -5 -3 -11 9 -13 -28 -49 -52 -50 -27 -1 16 -17 53 -19 68 -5 80 6 47 42
-9 10 -14 20 -12 21 2 2 89 0 194 -5 193 -8 221 -4 195 27 -7 8 -10 18 -7 21
3 3 48 0 101 -6 52 -7 107 -10 121 -6 28 7 33 27 10 46 -30 25 -13 30 100 30
109 0 185 15 185 36 0 5 -12 21 -27 36 l-27 28 27 0 c15 0 71 9 125 21 153 33
202 66 144 95 -27 14 -25 15 46 39 68 22 166 77 236 132 65 50 73 80 26 90
-16 3 -30 8 -30 12 0 3 52 32 115 64 128 65 175 99 175 128 0 14 -7 19 -29 19
-41 0 -46 14 -13 36 15 10 33 23 40 30 7 7 32 29 55 48 97 80 301 349 295 390
-4 30 -23 29 -105 -3z"/>
<path d="M7563 5883 c-22 -8 -15 -17 42 -53 51 -33 74 -60 39 -46 -8 3 -12 2
-9 -3 3 -5 1 -12 -4 -15 -5 -3 -12 4 -15 17 -4 12 -20 33 -37 46 -50 39 -86
41 -211 14 -62 -13 -138 -29 -168 -35 -185 -35 -256 -51 -266 -59 -6 -5 -10
-21 -8 -37 l4 -27 -12 28 c-7 15 -19 27 -28 27 -43 0 -156 -45 -190 -76 -71
-64 -214 -84 -612 -84 -79 0 -87 -2 -82 -17 5 -15 3 -15 -10 1 -20 25 -20 14
0 -32 26 -61 30 -66 55 -73 l24 -7 -26 -1 c-23 -1 -26 -5 -22 -28 l5 -28 -16
29 c-9 15 -13 32 -10 37 3 5 1 9 -4 9 -5 0 -14 25 -21 55 -14 60 -12 59 -106
69 -81 9 -117 24 -162 67 -48 45 -72 54 -170 64 -37 4 -110 16 -161 27 -50 10
-96 17 -100 14 -5 -3 -23 4 -40 15 -43 26 -64 25 -60 -3 2 -13 20 -31 48 -46
70 -39 170 -112 186 -138 13 -19 13 -29 3 -63 -11 -38 -10 -42 20 -79 29 -37
31 -46 31 -118 0 -58 4 -82 17 -96 9 -10 14 -20 12 -21 -2 -2 -62 -49 -132
-105 -71 -56 -133 -102 -139 -102 -26 0 -107 57 -142 100 -27 35 -54 55 -92
70 -30 12 -59 19 -66 16 -74 -37 -104 -64 -120 -111 -9 -28 -17 -67 -18 -87 0
-21 -4 -38 -10 -38 -5 0 -41 28 -81 63 -95 84 -114 95 -136 81 -10 -6 -18 -18
-18 -26 0 -9 -6 -22 -13 -30 -16 -20 -7 -42 24 -63 13 -8 24 -22 24 -30 0 -8
28 -37 62 -64 46 -38 77 -54 122 -65 34 -8 120 -35 191 -60 117 -41 139 -46
218 -46 116 0 243 30 382 91 103 45 108 47 76 19 -19 -16 -32 -32 -28 -36 11
-11 74 6 101 27 14 11 26 16 26 10 0 -6 -4 -11 -10 -11 -5 0 -10 -5 -10 -11 0
-6 8 -9 19 -6 16 4 72 -2 169 -18 30 -6 32 -4 27 17 -5 18 2 31 26 53 l32 30
-26 -36 c-15 -20 -27 -39 -27 -42 0 -4 33 -23 73 -43 99 -50 191 -112 262
-179 92 -86 174 -141 282 -191 54 -25 134 -63 178 -84 217 -103 264 -124 349
-152 107 -35 344 -78 436 -78 38 0 77 6 94 15 35 18 47 19 44 3 -2 -9 14 -14
50 -16 31 -2 52 1 52 7 0 6 8 11 18 11 14 0 15 2 2 10 -8 5 -17 5 -20 0 -6 -9
-61 -7 -79 4 -9 6 -9 11 0 22 16 20 38 17 87 -11 33 -19 48 -22 62 -15 23 12
33 13 26 2 -3 -5 22 -5 55 -1 128 15 201 93 220 236 10 78 10 85 -12 130 -13
27 -61 86 -109 134 l-85 87 90 23 c92 23 145 58 145 93 0 9 6 16 14 16 21 0
146 99 155 123 5 12 18 31 30 41 22 20 29 56 11 56 -5 0 -10 11 -10 25 0 30
-23 42 -53 27 -12 -6 -51 -37 -87 -70 -67 -61 -115 -88 -104 -58 3 9 -2 47
-11 86 l-17 69 -61 35 -61 34 -51 -19 c-33 -13 -67 -38 -100 -73 -46 -50 -110
-96 -131 -96 -18 0 -274 196 -274 210 0 3 5 11 12 18 7 7 13 46 14 89 1 43 3
81 3 85 1 3 13 20 27 38 24 27 26 36 20 83 -5 36 -3 57 6 68 18 23 113 91 181
129 37 20 57 38 57 50 0 20 -85 100 -106 100 -7 0 -18 2 -26 4 -7 3 -19 2 -25
-1z m-632 -231 c-5 -9 -7 -29 -4 -44 5 -28 -28 -151 -48 -178 -9 -13 -10 -12
-5 3 4 12 0 17 -17 18 -20 0 -19 2 6 11 15 5 24 14 21 19 -3 6 2 19 12 30 15
17 16 26 8 57 -11 40 5 102 26 102 7 0 7 -6 1 -18z m475 -87 c-3 -9 0 -25 7
-35 9 -16 9 -24 -1 -38 -7 -9 -18 -29 -25 -44 -6 -16 -15 -28 -19 -28 -14 0
-9 12 19 48 22 29 24 38 14 54 -11 18 -7 58 6 58 3 0 2 -7 -1 -15z m-1911 -38
c-13 -19 -13 -23 6 -43 11 -12 27 -39 34 -61 10 -31 18 -39 42 -41 56 -6 59
-12 14 -38 -42 -26 -42 -26 -24 -47 18 -21 18 -21 -17 1 -22 14 -34 28 -32 39
9 58 3 95 -21 132 -23 34 -24 42 -14 64 6 14 15 23 19 20 5 -2 1 -14 -7 -26z
m498 -202 c22 -52 24 -62 11 -76 -8 -9 -15 -42 -17 -82 -2 -58 -4 -67 -21 -67
-11 0 -28 -7 -38 -17 -17 -15 -18 -14 -18 37 0 36 5 59 17 72 16 18 16 22 1
62 -15 40 -15 45 3 82 10 21 18 46 19 54 0 23 16 0 43 -65z m1382 34 c4 -22 5
-41 3 -43 -35 -24 -61 -37 -65 -33 -3 3 9 13 26 22 17 8 31 23 31 33 -1 16 -1
16 -11 0 -5 -9 -16 -15 -24 -12 -8 4 -12 10 -9 15 3 5 -4 9 -15 9 -12 0 -21 5
-21 11 0 5 -5 7 -12 3 -7 -4 -8 -3 -4 4 4 7 22 12 39 11 27 0 29 -2 12 -10
-18 -8 -18 -8 5 -6 18 1 24 7 22 20 -2 9 1 17 7 17 5 0 12 -18 16 -41z m-412
-13 c15 -37 16 -49 5 -89 -9 -37 -9 -48 2 -62 7 -9 15 -41 17 -72 l4 -55 -22
16 c-13 9 -30 16 -39 16 -12 0 -16 14 -17 61 -2 34 -9 72 -17 85 -14 20 -13
28 11 83 14 34 29 61 32 61 3 0 14 -20 24 -44z m-893 -30 c0 -12 -5 -7 -19 24
-11 24 -11 24 3 6 9 -11 16 -24 16 -30z m770 4 c0 -5 -4 -10 -10 -10 -5 0 -10
5 -10 10 0 6 5 10 10 10 6 0 10 -4 10 -10z m-567 -27 c-7 -2 -19 -2 -25 0 -7
3 -2 5 12 5 14 0 19 -2 13 -5z m-218 -83 c3 -5 -1 -10 -9 -10 -9 0 -16 5 -16
10 0 6 4 10 9 10 6 0 13 -4 16 -10z m817 -47 c7 -9 5 -17 -5 -28 -19 -18 -34
-20 -19 -2 13 15 4 67 -12 67 -6 0 -4 5 4 10 12 7 16 4 18 -13 2 -12 8 -27 14
-34z m-826 -15 c2 -25 0 -28 -12 -16 -8 7 -11 23 -7 36 7 29 17 19 19 -20z
m39 -48 c3 -6 -1 -7 -9 -4 -18 7 -21 14 -7 14 6 0 13 -4 16 -10z m1920 -50 c9
-52 -21 -85 -71 -77 -20 3 -39 8 -42 11 -9 10 22 71 52 99 34 33 50 24 61 -33z
m-3046 29 c34 -32 56 -89 39 -100 -25 -17 -74 -10 -96 14 -19 20 -20 27 -10
65 12 48 31 54 67 21z m962 -70 c-5 -13 -10 -19 -10 -12 -1 15 10 45 15 40 3
-2 0 -15 -5 -28z m1069 -9 c0 -5 -2 -10 -4 -10 -3 0 -8 5 -11 10 -3 6 -1 10 4
10 6 0 11 -4 11 -10z m-1100 -20 c-8 -5 -19 -10 -25 -10 -5 0 -3 5 5 10 8 5
20 10 25 10 6 0 3 -5 -5 -10z m151 -28 c-11 -21 13 -55 56 -77 18 -9 22 -15
11 -15 -9 0 -33 15 -53 34 -31 30 -35 38 -25 55 6 12 13 21 16 21 2 0 0 -8 -5
-18z m822 -38 c-8 -14 -25 -30 -37 -36 -15 -7 -11 0 12 24 18 19 29 38 25 43
-5 4 -2 5 4 1 10 -5 9 -13 -4 -32z m-1027 4 c12 -14 13 -18 3 -10 -9 6 -19 9
-22 5 -4 -3 -7 1 -7 10 0 22 3 21 26 -5z m1248 7 c-4 -8 -10 -15 -15 -15 -4 0
-6 7 -3 15 4 8 10 15 15 15 4 0 6 -7 3 -15z m-139 -65 c3 -5 2 -10 -4 -10 -5
0 -13 5 -16 10 -3 6 -2 10 4 10 5 0 13 -4 16 -10z m393 -44 c50 -21 92 -45 92
-52 0 -7 8 -18 18 -23 13 -8 9 -10 -23 -10 -22 0 -47 3 -56 7 -18 8 -150 127
-134 121 6 -2 52 -22 103 -43z m-158 14 c0 -11 -4 -20 -9 -20 -5 0 -7 9 -4 20
3 11 7 20 9 20 2 0 4 -9 4 -20z m-236 -54 c-22 -19 -43 -36 -48 -36 -5 0 9 16
33 36 35 31 40 39 29 53 -11 15 -11 15 6 0 17 -16 16 -18 -20 -53z m296 13
c14 -11 19 -18 12 -14 -57 30 -65 35 -52 35 8 0 26 -10 40 -21z m855 -9 c-3
-5 -12 -10 -18 -10 -7 0 -6 4 3 10 19 12 23 12 15 0z m-42 -17 c-7 -2 -19 -2
-25 0 -7 3 -2 5 12 5 14 0 19 -2 13 -5z m-770 -28 c-7 -21 -12 -19 -10 4 0 11
5 18 9 15 4 -3 5 -11 1 -19z m-247 -25 c10 -12 4 -20 -27 -43 -22 -16 -42 -28
-44 -25 -2 2 9 12 26 23 33 23 36 40 12 69 -18 20 -17 20 2 6 11 -8 25 -22 31
-30z m534 -42 c0 -7 -31 -9 -87 -6 -64 4 -96 1 -118 -9 l-30 -14 24 21 c20 17
36 20 117 19 57 0 94 -5 94 -11z m-415 -77 c-3 -6 -12 -11 -19 -11 -7 0 -22
-11 -34 -25 -12 -14 -27 -25 -32 -25 -6 0 5 14 23 30 19 17 40 30 46 30 6 0
11 5 11 12 0 6 3 9 6 5 3 -3 3 -10 -1 -16z m855 -65 c0 -13 7 -29 15 -36 18
-15 20 1 3 18 -6 6 -9 14 -5 18 13 13 45 -59 43 -96 -5 -59 -57 -192 -78 -198
-10 -2 -16 -8 -13 -12 5 -8 -45 -46 -56 -43 -4 1 -10 -8 -13 -22 -6 -25 -47
-46 -54 -26 -2 6 -8 9 -13 5 -5 -3 -9 2 -9 11 0 8 12 20 28 25 72 27 98 42 99
61 1 10 -3 19 -9 19 -5 0 -8 7 -4 15 3 9 0 15 -9 15 -9 0 -12 -6 -8 -17 3 -10
3 -15 -2 -11 -4 4 -13 4 -19 -1 -42 -33 -196 -2 -196 39 0 11 9 24 20 30 13 7
20 7 20 1 0 -6 7 -8 15 -5 8 4 15 1 15 -4 0 -6 -8 -13 -17 -15 -16 -4 -16 -5
-1 -6 9 0 23 6 32 14 16 17 41 21 31 5 -3 -5 -1 -10 4 -10 6 0 11 5 11 10 0 6
7 10 15 10 8 0 15 7 15 15 0 9 -9 15 -21 15 -27 0 -23 8 34 59 45 42 65 48 30
9 -26 -29 -3 -44 29 -19 14 11 28 18 30 15 3 -3 9 11 12 30 7 35 7 36 31 20
13 -8 26 -25 28 -37 4 -18 4 -18 6 5 1 18 -5 29 -17 33 -21 6 -42 45 -42 76 0
11 5 17 10 14 6 -3 10 -17 10 -29z m-960 4 c0 -5 -8 -10 -17 -10 -15 0 -16 2
-3 10 19 12 20 12 20 0z"/>
<path d="M6912 5600 c0 -14 2 -19 5 -12 2 6 2 18 0 25 -3 6 -5 1 -5 -13z"/>
<path d="M5540 5360 c0 -5 5 -10 10 -10 6 0 10 5 10 10 0 6 -4 10 -10 10 -5 0
-10 -4 -10 -10z"/>
<path d="M8021 4414 c0 -11 3 -14 6 -6 3 7 2 16 -1 19 -3 4 -6 -2 -5 -13z"/>
<path d="M7993 4403 c-18 -7 -16 -20 2 -20 8 0 15 6 15 14 0 7 -1 13 -2 12 -2
0 -9 -3 -15 -6z"/>
<path d="M7955 4390 c-3 -5 -1 -10 4 -10 6 0 11 5 11 10 0 6 -2 10 -4 10 -3 0
-8 -4 -11 -10z"/>
<path d="M8036 4385 c-9 -26 -7 -32 5 -12 6 10 9 21 6 23 -2 3 -7 -2 -11 -11z"/>
<path d="M7860 4375 c-17 -10 -20 -14 -9 -15 9 0 22 7 29 15 15 18 12 18 -20
0z"/>
<path d="M8021 4334 c0 -11 3 -14 6 -6 3 7 2 16 -1 19 -3 4 -6 -2 -5 -13z"/>
<path d="M7885 4320 c-3 -5 -1 -10 4 -10 6 0 11 5 11 10 0 6 -2 10 -4 10 -3 0
-8 -4 -11 -10z"/>
<path d="M7905 4300 c-3 -5 -1 -10 4 -10 6 0 11 5 11 10 0 6 -2 10 -4 10 -3 0
-8 -4 -11 -10z"/>
<path d="M7983 4290 c-13 -5 -23 -12 -23 -15 0 -9 16 -5 36 10 22 16 19 18
-13 5z"/>
<path d="M7804 4273 c3 -7 0 -13 -7 -14 -7 0 -2 -4 10 -9 12 -5 34 -5 50 0 24
7 25 8 6 9 -13 1 -23 6 -23 11 0 6 11 8 28 4 15 -4 23 -3 19 2 -14 14 -88 12
-83 -3z"/>
<path d="M7758 4273 c7 -3 16 -2 19 1 4 3 -2 6 -13 5 -11 0 -14 -3 -6 -6z"/>
<path d="M7985 4250 c3 -5 8 -10 11 -10 2 0 4 5 4 10 0 6 -5 10 -11 10 -5 0
-7 -4 -4 -10z"/>
<path d="M7868 4153 c7 -3 16 -2 19 1 4 3 -2 6 -13 5 -11 0 -14 -3 -6 -6z"/>
<path d="M2301 5804 c0 -11 3 -14 6 -6 3 7 2 16 -1 19 -3 4 -6 -2 -5 -13z"/>
<path d="M9645 5792 c-58 -23 -70 -32 -73 -52 -6 -55 -45 -231 -74 -335 -139
-494 -423 -989 -783 -1359 -50 -51 -61 -67 -43 -63 13 3 59 11 103 18 102 15
117 23 109 54 l-6 25 113 0 c181 1 241 19 204 60 -16 18 -17 23 -5 30 8 6 20
10 25 10 6 0 46 7 90 15 44 8 108 15 141 15 34 0 76 3 93 6 47 10 42 47 -14
107 -25 26 -45 50 -45 54 0 3 45 2 99 -1 76 -6 102 -4 111 6 27 31 186 352
231 468 16 41 33 84 38 95 5 11 16 43 26 70 9 28 20 59 25 70 38 86 131 468
145 597 l7 58 -29 -6 c-29 -6 -30 -5 -25 25 10 70 -44 77 -212 31 -60 -17
-109 -30 -110 -28 -1 2 -7 15 -14 31 -15 34 -36 34 -127 -1z"/>
<path d="M10390 5806 c0 -8 7 -16 15 -20 8 -3 22 -20 30 -38 8 -18 13 -25 10
-15 -3 10 -5 24 -5 31 0 14 -33 56 -44 56 -3 0 -6 -6 -6 -14z"/>
<path d="M10289 5792 c-22 -12 -21 -12 16 -6 22 3 44 10 49 14 13 13 -38 6
-65 -8z"/>
<path d="M10205 5760 c-22 -10 -34 -19 -27 -19 14 -1 72 27 72 34 0 6 3 7 -45
-15z"/>
<path d="M10360 5776 c0 -2 7 -7 16 -10 8 -3 12 -2 9 4 -6 10 -25 14 -25 6z"/>
<path d="M10260 5760 c-9 -6 -10 -10 -3 -10 6 0 15 5 18 10 8 12 4 12 -15 0z"/>
<path d="M10402 5740 c0 -14 2 -19 5 -12 2 6 2 18 0 25 -3 6 -5 1 -5 -13z"/>
<path d="M10421 5684 c0 -11 3 -14 6 -6 3 7 2 16 -1 19 -3 4 -6 -2 -5 -13z"/>
<path d="M10429 5642 c7 -5 10 -15 7 -21 -4 -6 -2 -11 4 -11 17 0 8 33 -10 37
-12 4 -13 3 -1 -5z"/>
<path d="M10401 5514 c0 -11 3 -14 6 -6 3 7 2 16 -1 19 -3 4 -6 -2 -5 -13z"/>
<path d="M2535 4850 c3 -5 8 -10 11 -10 2 0 4 5 4 10 0 6 -5 10 -11 10 -5 0
-7 -4 -4 -10z"/>
<path d="M5527 4684 c-4 -5 2 -16 15 -26 20 -16 20 -17 3 -12 -11 4 -25 11
-31 15 -21 16 -148 -13 -228 -52 -73 -36 -86 -39 -162 -39 -45 0 -94 4 -109
10 -14 5 -50 12 -79 16 l-54 5 -50 -61 c-34 -42 -52 -75 -56 -102 -7 -44 8
-144 30 -196 18 -44 195 -219 230 -228 14 -4 50 -1 79 6 61 15 97 8 136 -25
16 -13 48 -31 73 -40 43 -16 49 -16 118 0 192 46 187 45 278 29 121 -22 120
-21 120 -55 0 -47 17 -68 63 -80 29 -7 49 -20 62 -39 34 -50 83 -70 171 -70
44 0 95 4 114 10 19 5 48 11 64 14 16 3 52 10 80 16 43 9 70 7 175 -15 141
-29 257 -33 301 -10 16 8 41 31 56 50 15 21 40 39 61 44 50 14 73 38 73 76 0
34 13 45 53 45 12 0 28 4 35 9 8 5 -15 14 -65 26 -87 20 -265 77 -333 107 -55
24 -200 97 -375 188 -71 37 -184 89 -250 116 -130 51 -137 56 -267 151 -48 36
-92 62 -97 59 -5 -3 -11 -3 -13 1 -13 30 -200 78 -221 57z m271 -118 c13 -11
35 -26 50 -32 15 -7 20 -12 12 -12 -23 -1 -43 10 -86 46 -21 18 -30 30 -19 26
11 -4 30 -16 43 -28z m-893 -26 c-12 -36 5 -97 35 -126 16 -17 25 -35 22 -44
-3 -8 4 -4 15 10 15 17 18 27 10 32 -6 4 -9 10 -5 13 10 10 50 -34 42 -46 -3
-6 0 -10 7 -8 26 3 39 -1 39 -12 0 -6 -8 -9 -18 -7 -12 4 -23 -4 -34 -23 l-16
-28 26 10 c19 7 28 7 31 -2 2 -8 5 -8 10 0 5 8 15 9 32 2 26 -10 23 -12 -46
-30 l-40 -10 45 7 c25 3 61 6 80 5 27 -1 31 1 15 7 l-20 9 20 1 c17 2 16 3 -5
10 l-25 8 26 1 c21 1 28 -5 31 -23 5 -27 -7 -35 -86 -55 -37 -10 -66 -7 -35 3
8 2 21 7 29 9 8 3 -4 6 -26 6 -63 1 -108 12 -92 22 11 7 11 9 0 9 -20 0 -52
-19 -52 -32 0 -7 4 -7 13 0 14 12 107 -5 107 -20 0 -9 -44 -1 -72 13 -22 12
-34 -7 -18 -26 7 -8 9 -15 4 -15 -15 -1 77 -40 92 -40 8 0 14 -10 14 -25 0
-36 25 -41 76 -16 25 11 49 21 55 21 10 0 109 -60 109 -65 0 -1 -11 0 -25 3
-14 2 -25 8 -25 12 0 10 -86 6 -115 -5 -16 -5 -17 -5 -5 4 9 7 11 11 3 11 -7
0 -16 -7 -21 -16 -11 -20 -67 -11 -59 10 3 7 -5 18 -16 25 -18 11 -20 11 -9 0
6 -7 12 -16 12 -21 0 -4 -26 18 -57 48 -32 31 -57 63 -56 73 1 9 0 11 -3 4
-11 -25 -23 -12 -19 20 4 27 3 28 -3 7 l-8 -25 -17 31 c-9 17 -14 34 -11 37 3
3 1 13 -5 24 -5 10 -17 43 -25 73 -17 61 -13 74 42 133 31 32 35 34 27 7z"/>
<path d="M4862 4492 c-18 -23 -21 -34 -16 -72 4 -25 9 -47 12 -50 3 -3 2 16
-1 42 -5 38 -3 51 14 73 28 35 20 41 -9 7z"/>
<path d="M4870 4461 c0 -20 13 -41 21 -35 15 9 10 44 -6 44 -8 0 -15 -4 -15
-9z"/>
<path d="M4911 4404 c0 -11 3 -14 6 -6 3 7 2 16 -1 19 -3 4 -6 -2 -5 -13z"/>
<path d="M4872 4370 c0 -14 2 -19 5 -12 2 6 2 18 0 25 -3 6 -5 1 -5 -13z"/>
<path d="M4980 4350 c0 -5 5 -10 10 -10 6 0 10 5 10 10 0 6 -4 10 -10 10 -5 0
-10 -4 -10 -10z"/>
<path d="M5020 4156 c0 -2 7 -7 16 -10 8 -3 12 -2 9 4 -6 10 -25 14 -25 6z"/>
<path d="M5180 4130 c-24 -8 -23 -8 8 -9 20 -1 31 3 27 9 -3 6 -7 10 -8 9 -1
-1 -13 -5 -27 -9z"/>
<path d="M10058 4523 c6 -2 18 -2 25 0 6 3 1 5 -13 5 -14 0 -19 -2 -12 -5z"/>
<path d="M9792 4484 c10 -10 20 -15 24 -12 3 4 -5 12 -18 18 -22 12 -22 12 -6
-6z"/>
<path d="M2740 4486 c0 -2 13 -6 29 -8 17 -2 28 -1 25 4 -5 8 -54 12 -54 4z"/>
<path d="M9845 4434 c0 -13 3 -24 8 -24 4 0 7 9 7 19 0 11 -3 22 -7 24 -5 3
-8 -6 -8 -19z"/>
<path d="M9808 4403 c7 -3 16 -2 19 1 4 3 -2 6 -13 5 -11 0 -14 -3 -6 -6z"/>
<path d="M2911 4359 c0 -9 6 -22 14 -29 10 -9 15 -9 15 -1 0 6 -4 11 -9 11 -5
0 -12 8 -14 18 -4 14 -5 14 -6 1z"/>
<path d="M7695 4130 c11 -5 27 -9 35 -9 13 -1 13 0 0 9 -8 5 -24 9 -35 9 l-20
0 20 -9z"/>
<path d="M7505 3950 c3 -5 12 -10 20 -10 8 0 17 5 20 10 4 6 -5 10 -20 10 -15
0 -24 -4 -20 -10z"/>
<path d="M8528 3806 c-94 -25 -128 -39 -170 -71 -29 -22 -55 -42 -58 -46 -3
-3 -34 -25 -70 -49 -36 -24 -67 -46 -70 -49 -3 -4 -22 -15 -42 -26 -21 -11
-38 -23 -38 -27 0 -5 -4 -8 -10 -8 -5 0 -33 -14 -62 -32 -147 -87 -448 -223
-550 -249 -34 -8 -203 -10 -613 -7 -419 4 -585 2 -643 -7 -46 -8 -84 -9 -94
-4 -9 5 -184 9 -388 9 l-372 0 -66 26 c-156 59 -205 81 -351 156 -131 68 -246
134 -286 165 -6 4 -48 34 -95 65 -47 32 -101 72 -120 89 -27 24 -41 29 -64 25
-15 -3 -69 -6 -118 -6 -84 0 -90 -1 -114 -27 -26 -28 -27 -46 -9 -109 6 -19 1
-21 -85 -32 -51 -6 -103 -18 -116 -27 -25 -16 -33 -58 -14 -70 26 -16 3 -27
-104 -50 -23 -5 -26 -9 -16 -15 9 -5 17 -5 21 1 3 6 21 9 40 7 28 -2 33 -7 31
-24 -3 -22 21 -39 39 -28 5 3 9 1 9 -5 0 -6 15 -18 33 -27 40 -21 58 -44 51
-66 -5 -18 28 -34 46 -23 5 3 21 -5 34 -19 l25 -24 -64 1 c-36 1 -65 -1 -65
-4 0 -6 -57 -21 -63 -16 -1 1 -19 -9 -40 -22 -21 -13 -41 -21 -44 -17 -3 3
-15 -6 -26 -20 -13 -17 -26 -24 -39 -21 -14 4 -18 1 -14 -9 8 -21 -2 -17 -30
13 -25 27 -17 46 10 24 15 -12 26 -5 26 18 0 13 -2 13 -9 2 -7 -10 -13 -11
-30 -2 -14 8 -21 8 -21 1 0 -19 -25 -10 -50 18 -14 15 -36 36 -50 45 -21 15
-23 19 -10 27 21 13 47 12 56 -2 5 -8 0 -9 -15 -5 -22 5 -22 5 -6 -13 15 -16
19 -17 31 -5 19 18 18 32 -3 39 -14 4 -14 4 2 3 11 -1 26 3 34 7 11 7 13 5 8
-7 -3 -10 -2 -17 3 -17 6 0 10 7 10 15 0 8 6 15 14 15 17 0 24 24 17 60 -4 23
-5 23 -12 5 -5 -14 -8 -7 -8 25 0 25 3 40 7 33 5 -8 11 -4 18 12 11 23 11 24
-12 9 -13 -9 -26 -24 -29 -35 -7 -22 3 -61 18 -70 20 -13 -4 -27 -68 -39 -78
-15 -104 -39 -80 -76 18 -28 13 -31 -101 -40 -100 -8 -134 -27 -113 -65 15
-29 3 -37 -61 -41 -46 -2 -57 -7 -65 -25 -8 -20 -17 -23 -61 -23 -77 0 -116
-10 -122 -32 -4 -17 -12 -18 -95 -12 l-90 7 7 -36 c7 -35 6 -36 -29 -43 -20
-3 -40 -15 -45 -25 -6 -10 -40 -28 -81 -41 -126 -40 -106 -66 81 -107 74 -16
162 -32 195 -36 42 -5 65 -13 75 -27 21 -25 76 -37 171 -38 70 0 77 -2 82 -21
5 -20 11 -21 72 -17 47 4 65 3 62 -6 -2 -6 -13 -44 -23 -84 -19 -73 -19 -73 2
-110 19 -33 130 -216 168 -274 14 -22 7 -33 -144 -245 -87 -121 -208 -293
-269 -381 -160 -230 -162 -222 85 -452 l131 -122 5 -90 6 -90 -39 -39 c-44
-44 -53 -71 -47 -138 6 -60 22 -82 121 -156 151 -114 168 -120 257 -85 28 11
65 20 81 20 41 0 76 25 184 131 l90 89 41 -20 c62 -31 194 -31 252 -1 65 33
137 88 169 127 26 32 30 34 63 24 44 -13 162 -13 227 -1 85 17 163 60 234 131
36 36 75 83 87 105 l20 40 11 -30 c29 -76 78 -120 147 -131 58 -8 126 24 161
77 22 34 40 115 43 197 0 6 11 12 24 12 13 0 43 7 66 15 62 22 67 20 74 -32
11 -84 72 -138 184 -162 67 -14 146 4 310 70 27 11 36 11 54 0 58 -36 123 -31
177 14 35 30 40 31 91 4 50 -26 113 -21 174 15 l42 24 59 -45 c165 -123 362
-168 488 -110 l54 25 34 -29 c19 -16 48 -34 66 -40 17 -5 39 -21 48 -35 8 -13
34 -38 57 -54 58 -43 123 -42 172 1 29 25 39 28 55 20 26 -14 64 -14 95 0 23
11 30 8 65 -24 43 -39 91 -53 148 -44 33 6 41 1 96 -47 33 -30 95 -75 138
-101 123 -74 206 -73 269 3 33 40 27 48 51 -73 31 -159 128 -269 222 -251 29
5 222 148 254 187 7 8 23 44 35 79 15 43 31 68 46 76 13 6 38 25 55 42 18 16
42 35 54 41 13 6 32 30 44 53 19 38 20 47 10 94 -9 41 -9 67 0 113 18 92 8
195 -25 264 l-28 58 75 79 c65 67 79 88 96 145 38 122 30 180 -68 500 -245
797 -311 1016 -311 1034 0 7 20 11 49 11 51 0 81 17 81 46 0 18 21 18 90 -1
73 -20 86 -19 109 6 l19 20 63 -33 c97 -50 108 -52 122 -20 6 15 12 28 13 30
1 2 38 -15 83 -37 90 -46 106 -49 120 -23 9 16 11 16 38 -1 52 -33 268 -137
286 -137 37 0 30 47 -15 94 -33 35 -74 99 -86 134 -6 19 -23 47 -36 63 -19 23
-24 37 -19 59 7 37 -4 51 -74 91 -30 17 -58 41 -63 53 -11 30 -47 60 -107 90
-29 15 -53 32 -53 40 0 20 -32 45 -84 62 -39 13 -46 19 -41 36 4 10 2 25 -4
32 -11 13 -109 32 -143 27 -10 -1 -18 3 -18 8 0 6 -10 11 -22 11 -18 0 -14 -5
21 -25 41 -24 72 -35 41 -15 -11 7 -7 10 18 10 22 0 31 -4 26 -11 -5 -8 1 -10
19 -5 14 3 29 2 32 -4 4 -6 -23 -9 -76 -6 -54 2 -84 8 -90 17 -4 7 -11 10 -15
6 -9 -8 25 -36 44 -37 7 0 17 -12 22 -26 6 -14 15 -24 21 -22 13 4 11 24 -2
21 -5 -2 -9 3 -9 10 0 7 13 14 30 15 23 2 30 -2 30 -16 0 -18 -48 -72 -55 -62
-2 3 -7 2 -11 -2 -4 -5 -2 -8 4 -8 7 0 -10 -22 -36 -49 -26 -27 -48 -45 -50
-40 -7 17 -23 9 -18 -9 5 -13 -17 -39 -81 -99 -205 -191 -203 -189 -203 -155
0 14 -2 15 -10 2 -9 -13 -10 -13 -10 0 0 8 -15 25 -33 38 -22 16 -27 22 -14
22 10 0 20 -6 23 -14 8 -20 34 -29 34 -12 0 21 -83 50 -120 43 -20 -5 -30 -3
-30 6 0 8 -15 11 -52 7 l-53 -4 50 -7 c49 -6 48 -6 -20 -7 -48 -1 -65 1 -55 8
12 8 11 10 -7 10 -12 0 -25 -4 -28 -10 -3 -5 -18 -10 -33 -10 l-27 1 21 17
c67 54 99 77 106 74 4 -1 8 5 8 13 0 8 3 15 8 15 4 0 34 25 67 55 33 31 65 53
73 50 7 -2 17 6 22 20 6 15 17 25 29 25 11 0 26 7 35 15 8 8 21 12 29 9 17 -6
50 34 40 49 -3 6 -10 1 -14 -11 -5 -12 -15 -22 -23 -22 -8 0 -23 -3 -33 -7
-10 -3 25 38 78 91 89 90 97 101 95 134 -1 35 -3 37 -36 40 -19 1 -70 -4 -113
-11 -71 -12 -104 -9 -77 8 6 4 8 11 5 16 -11 16 -88 9 -170 -16 -44 -14 -83
-25 -87 -25 -4 0 -6 14 -6 31 2 58 -25 60 -194 15z m-4468 -526 c0 -5 -7 -10
-15 -10 -8 0 -15 5 -15 10 0 6 7 10 15 10 8 0 15 -4 15 -10z m3997 -118 c6 -4
16 -20 22 -34 l10 -27 153 -3 152 -3 43 -160 c23 -88 43 -161 43 -162 0 -2
-18 -3 -41 -3 -34 0 -40 -3 -35 -17 3 -10 30 -115 61 -233 30 -118 63 -226 73
-240 10 -13 32 -28 49 -32 26 -7 34 -16 46 -56 31 -100 70 -262 64 -269 -11
-10 -168 27 -224 54 -55 25 -118 88 -160 160 -24 42 -83 203 -83 228 0 8 -4
16 -9 19 -14 9 -211 29 -218 23 -3 -4 2 -45 12 -92 15 -72 16 -92 6 -128 -16
-54 -65 -105 -113 -117 -46 -13 -195 -2 -212 16 -7 7 -21 61 -30 121 -10 59
-20 118 -23 131 -4 18 -1 22 19 22 13 0 32 6 41 13 15 10 16 19 7 67 -5 30
-21 120 -36 200 -34 193 -28 180 -74 180 l-38 0 -21 123 c-12 67 -24 133 -27
146 l-5 23 128 -2 c187 -4 183 -4 183 24 0 13 6 27 13 29 20 8 211 7 224 -1z
m-2311 -99 c-3 -27 -8 -79 -12 -118 -3 -38 -8 -77 -10 -86 -4 -14 -37 -17
-241 -23 -131 -4 -239 -9 -241 -10 -1 -2 -7 -27 -11 -56 l-8 -52 161 3 c138 3
161 2 161 -11 -1 -48 -18 -208 -23 -217 -4 -7 -72 -15 -165 -20 -88 -5 -162
-14 -168 -20 -14 -14 -3 -50 20 -63 12 -6 94 -4 232 5 118 8 220 15 227 15 8
0 12 -18 12 -57 -1 -63 -15 -202 -22 -208 -7 -8 -389 -37 -480 -37 -64 0 -98
5 -130 20 -101 45 -158 131 -158 239 l0 63 -35 0 c-40 0 -41 6 -25 92 6 29 15
78 21 108 17 88 17 88 59 95 35 6 41 11 49 42 13 45 6 56 -31 51 -16 -3 -31
-2 -33 2 -4 6 39 244 50 278 3 9 93 12 406 12 l401 0 -6 -47z m314 27 c0 -11
2 -20 5 -20 3 0 38 9 77 20 59 16 103 20 240 20 166 0 168 0 172 -22 3 -13 8
-126 11 -253 9 -388 14 -415 71 -415 29 0 31 -9 38 -154 l5 -108 -102 4 c-116
5 -161 22 -221 85 -61 63 -68 109 -65 371 l4 227 -30 -3 c-91 -9 -158 -46
-191 -106 -25 -44 -30 -91 -44 -370 -5 -110 -12 -202 -15 -204 -3 -3 -68 -8
-145 -11 -139 -6 -140 -6 -140 16 0 75 63 833 76 911 l5 32 124 0 c118 0 125
-1 125 -20z m1428 -177 c54 -330 45 -376 -80 -418 -36 -13 -82 -16 -198 -14
-83 1 -152 0 -154 -2 -2 -2 2 -65 10 -139 7 -74 14 -150 14 -169 l0 -34 -142
7 c-78 3 -144 8 -146 11 -2 2 -8 75 -13 162 -6 87 -12 164 -14 171 -2 6 -20
12 -40 12 -20 0 -37 6 -40 13 -2 6 -6 67 -10 135 l-6 122 40 0 c40 0 41 1 41
35 0 34 -1 35 -40 35 -46 0 -46 0 -54 168 l-4 102 402 0 402 0 32 -197z
m-2689 65 c-45 -62 -148 -202 -228 -312 -428 -582 -521 -710 -521 -718 0 -12
18 -10 101 9 85 19 113 42 130 106 11 45 11 45 62 52 29 3 90 13 137 20 47 8
113 17 148 21 63 7 63 7 58 -17 -3 -13 -12 -59 -21 -103 -8 -43 -28 -106 -45
-141 -59 -123 -217 -261 -360 -314 -30 -11 -113 -34 -185 -51 -71 -16 -155
-37 -185 -45 -207 -57 -284 -79 -430 -123 -91 -28 -178 -55 -194 -61 -16 -7
-31 -9 -34 -6 -3 3 20 42 52 88 31 45 87 125 123 177 84 121 471 661 699 973
35 49 64 93 64 99 0 11 -97 2 -149 -14 -28 -9 -38 -21 -62 -75 -16 -35 -35
-65 -42 -67 -33 -10 -348 -48 -353 -43 -10 10 66 240 109 327 33 67 59 103
127 171 51 52 107 98 140 115 52 27 63 29 225 34 94 4 293 7 443 8 l272 2 -81
-112z m4089 96 c27 -5 32 -13 50 -73 20 -65 71 -229 137 -446 18 -60 86 -281
151 -490 110 -355 118 -386 118 -465 1 -101 -18 -148 -73 -186 -27 -18 -48
-24 -91 -24 -64 1 -269 52 -280 70 -4 7 -18 53 -30 104 -13 50 -38 145 -56
210 -19 66 -34 121 -34 122 0 2 21 4 48 6 40 3 47 6 50 25 2 13 -17 96 -43
185 -25 90 -64 228 -86 308 -22 80 -58 206 -79 280 -78 276 -100 357 -100 368
0 13 260 17 318 6z m-2639 -1251 c67 -39 32 -71 -111 -103 l-97 -21 -7 -37
c-11 -71 -14 -67 46 -64 30 1 62 -2 70 -7 13 -9 12 -14 -6 -38 -25 -33 -91
-81 -118 -85 -14 -2 -23 -17 -31 -53 -7 -27 -13 -54 -15 -60 -6 -23 4 -22 93
2 68 19 107 24 148 20 l57 -5 6 92 c8 105 45 327 56 340 36 39 162 -63 201
-164 31 -76 79 -173 85 -168 2 3 15 37 29 76 34 96 36 235 5 252 -27 14 -25
28 5 42 42 19 128 -31 160 -93 31 -59 14 -225 -33 -319 -37 -74 -146 -154
-200 -148 -23 3 -27 8 -26 33 1 22 -14 52 -55 109 -31 44 -61 78 -66 75 -6 -2
-18 -33 -28 -69 -10 -36 -23 -82 -29 -102 -14 -49 -53 -86 -76 -72 -9 6 -20
25 -23 43 -4 18 -9 34 -12 37 -3 3 -42 -15 -88 -40 -46 -25 -126 -59 -178 -76
-85 -29 -97 -30 -141 -20 -79 19 -110 80 -42 80 43 0 51 17 45 89 l-6 63 -43
19 c-35 14 -44 23 -44 42 0 21 7 26 44 36 25 6 47 14 49 18 3 5 8 34 11 66 l7
57 -28 0 c-34 0 -53 16 -53 45 0 41 68 79 202 115 86 24 189 20 237 -7z m-467
-34 c12 -14 16 -30 12 -45 -4 -14 1 -45 11 -71 17 -44 17 -47 0 -77 -44 -77
-146 -155 -251 -192 l-52 -18 -66 28 c-37 16 -68 27 -71 25 -2 -2 -9 -69 -15
-149 -15 -178 -19 -194 -51 -198 -38 -4 -49 10 -67 84 -16 69 -20 217 -8 334
l6 56 -45 12 c-33 9 -48 19 -60 41 -19 39 -20 62 0 55 47 -18 145 36 145 81 0
12 7 26 16 29 26 10 83 7 102 -5 14 -9 44 -7 128 9 188 37 236 37 266 1z
m1256 2 c3 -22 6 -23 50 -15 79 15 193 10 232 -10 85 -44 120 -84 135 -155 l7
-35 -31 27 c-41 34 -88 48 -186 54 -125 8 -163 -19 -115 -80 13 -16 35 -28 60
-32 66 -11 130 -61 164 -129 71 -137 10 -259 -136 -272 -76 -7 -217 39 -296
97 -69 50 -77 62 -61 92 l12 21 21 -26 c32 -39 58 -48 143 -48 65 0 87 5 132
28 60 30 95 69 86 95 -4 9 -27 26 -51 37 -37 18 -54 21 -107 15 -63 -7 -64 -7
-101 30 -48 47 -66 90 -66 162 0 66 26 132 61 157 29 20 43 16 47 -13z m879
-106 l28 -19 -45 -13 c-74 -21 -71 -18 -51 -65 12 -28 23 -91 30 -183 7 -77
18 -168 26 -203 12 -49 12 -73 4 -114 l-12 -53 -33 39 c-39 45 -88 164 -118
289 -11 48 -23 87 -26 87 -8 0 -127 -240 -140 -282 -6 -20 -17 -42 -25 -48
-20 -17 -60 26 -75 78 -15 57 -1 108 78 276 73 157 72 159 -14 172 -34 5 -44
11 -44 25 0 22 19 28 115 33 154 8 272 0 302 -19z m-2977 -27 c49 -26 86 -69
77 -92 -5 -12 -12 -13 -44 -4 -83 23 -265 -14 -315 -64 -33 -33 -11 -83 48
-108 14 -6 36 -4 64 6 113 39 239 -43 227 -146 -11 -92 -111 -221 -201 -261
-25 -11 -83 -25 -130 -31 -73 -9 -92 -8 -143 7 -86 27 -98 41 -69 80 14 19 15
19 33 2 32 -28 87 -21 166 20 143 76 264 223 201 247 -17 7 -127 -28 -158 -50
-26 -18 -87 -18 -130 0 -70 29 -93 173 -43 272 31 61 49 78 76 69 13 -4 37 3
67 21 102 60 197 71 274 32z m3078 -108 c16 0 26 7 29 21 5 18 11 20 40 16 19
-4 50 -18 69 -32 39 -30 114 -58 232 -86 99 -24 152 -52 152 -82 0 -12 14 -53
30 -92 65 -152 18 -215 -160 -215 -28 0 -50 -3 -50 -7 0 -19 48 -76 147 -176
97 -98 105 -109 91 -123 -21 -21 -40 -14 -133 47 -76 49 -194 160 -249 232
-16 20 -32 37 -36 37 -4 0 -11 -24 -14 -54 -4 -30 -13 -57 -20 -59 -17 -7 -52
17 -68 46 -22 41 -48 182 -55 290 l-6 108 -42 30 c-47 34 -65 64 -65 109 l0
29 43 -19 c23 -11 53 -20 65 -20z m-3543 -10 c6 -10 -9 -27 -60 -70 -60 -50
-105 -115 -105 -151 0 -19 -14 -105 -31 -192 -17 -87 -29 -160 -26 -163 3 -3
20 4 38 15 19 12 47 21 62 21 25 0 27 -3 21 -22 -19 -62 -50 -101 -123 -153
-42 -30 -65 -40 -107 -43 -65 -5 -100 2 -108 24 -8 22 8 40 42 47 63 13 66 21
73 189 4 84 10 171 14 193 l7 40 -49 -3 c-38 -3 -54 1 -76 18 -39 31 -33 63
13 71 19 3 60 21 90 39 65 39 290 149 307 149 6 1 14 -3 18 -9z m4301 -202
c15 -7 37 -26 48 -41 22 -30 22 -33 13 -257 l-2 -44 125 -52 c69 -29 127 -48
128 -43 2 6 -4 40 -13 78 -16 65 -18 232 -3 247 21 20 100 -40 130 -99 24 -49
26 -102 8 -215 -11 -64 -11 -91 -3 -113 10 -25 9 -31 -4 -36 -13 -5 -96 13
-145 32 -16 6 -18 1 -18 -41 0 -70 -29 -225 -46 -252 -15 -23 -16 -23 -36 -5
-41 36 -80 174 -90 318 -3 38 -4 40 -46 47 -120 20 -242 95 -242 148 0 18 4
21 23 16 51 -14 97 -18 97 -9 0 6 -7 30 -15 53 -16 44 -19 148 -8 239 l6 53
33 -5 c19 -3 46 -12 60 -19z m-4770 -25 c38 -41 50 -94 37 -169 -22 -128 -97
-253 -252 -416 -98 -104 -141 -136 -181 -136 -14 0 -47 -10 -74 -21 -37 -16
-52 -19 -62 -10 -18 14 -5 39 44 83 l36 34 2 176 2 176 -33 0 c-53 0 -65 9
-65 46 0 29 3 34 24 34 13 0 47 16 76 36 46 31 391 194 413 194 4 0 19 -12 33
-27z m3738 -88 c29 -31 40 -83 26 -120 -15 -40 -63 -105 -78 -105 -7 0 -21 15
-32 33 -16 25 -20 50 -20 118 0 47 3 89 7 92 17 17 75 6 97 -18z"/>
<path d="M7866 3096 c8 -33 -23 -39 -171 -30 -68 3 -124 3 -127 -2 -3 -5 2
-52 11 -104 l16 -95 40 -5 40 -5 17 -85 c9 -47 29 -151 43 -231 28 -161 25
-192 -20 -209 -14 -5 -25 -13 -25 -17 0 -23 33 -189 39 -196 4 -4 46 -8 93 -8
100 -2 127 12 153 76 16 37 15 46 -6 152 -12 62 -19 116 -16 119 5 6 138 -7
257 -25 l44 -6 32 -106 c18 -59 41 -124 52 -146 28 -55 105 -137 146 -157 37
-17 156 -50 161 -44 5 4 -51 213 -60 228 -3 5 -12 10 -20 10 -31 0 -74 51 -90
108 -30 101 -113 436 -117 467 -3 28 -1 30 30 30 37 0 38 5 17 81 -8 30 -22
79 -30 109 l-16 55 -153 0 -154 0 -7 30 -7 30 -89 0 c-89 0 -89 0 -83 -24z
m229 -265 l70 -6 19 -83 c10 -46 17 -84 15 -86 -8 -5 -288 20 -295 27 -10 10
-44 149 -38 158 4 7 82 4 229 -10z"/>
<path d="M7918 2795 c-3 -4 -1 -23 6 -43 l13 -37 103 -7 c57 -5 105 -7 106 -5
3 3 -13 77 -18 82 -7 8 -203 17 -210 10z"/>
<path d="M5018 3062 c-37 -3 -37 -3 -51 -70 -32 -145 -33 -132 7 -132 19 0 37
-4 40 -8 3 -5 -3 -42 -12 -83 l-17 -74 -42 -9 -41 -8 -17 -89 c-10 -49 -15
-95 -11 -104 3 -9 18 -15 34 -15 l29 0 -1 -87 c0 -99 12 -133 65 -177 51 -43
94 -56 188 -56 112 0 422 27 432 37 4 4 9 46 11 93 l3 85 -60 -3 c-33 -1 -126
-7 -206 -13 -130 -10 -150 -9 -178 5 -42 22 -57 56 -45 103 11 46 19 48 194
57 74 4 138 10 141 14 4 4 10 40 14 80 l7 72 -161 0 c-160 0 -161 0 -161 23 0
31 20 150 26 157 3 3 112 10 242 15 l237 10 9 83 c5 45 6 85 3 88 -6 6 -614
11 -679 6z"/>
<path d="M5845 3058 c-5 -16 -20 -185 -45 -503 -11 -137 -22 -276 -25 -309
l-5 -59 100 5 c55 3 102 7 105 10 3 2 10 94 15 204 17 312 29 362 106 420 43
33 166 66 212 58 l34 -7 -4 -261 -3 -261 27 -46 c39 -67 101 -101 195 -107
l73 -5 0 90 0 89 -32 12 c-18 6 -39 20 -45 31 -11 18 -26 250 -36 571 l-2 75
-170 0 c-134 -1 -178 -4 -206 -17 -20 -9 -55 -19 -78 -23 -39 -6 -41 -6 -41
19 0 26 0 26 -85 26 -60 0 -87 -4 -90 -12z"/>
<path d="M6702 2983 l3 -88 43 -9 42 -10 0 -61 c0 -68 -13 -92 -50 -97 -14 -2
-25 -9 -24 -15 1 -7 2 -47 3 -88 l1 -75 40 0 c24 0 42 -5 45 -12 2 -7 8 -84
12 -170 5 -87 11 -160 14 -162 3 -3 52 -9 108 -12 l103 -7 -6 44 c-9 69 -26
248 -26 279 l0 28 158 -5 c169 -6 237 3 282 37 23 18 25 24 24 107 0 87 -36
337 -54 381 l-10 22 -355 0 -356 0 3 -87z m499 -109 l67 -7 12 -89 c6 -49 10
-92 7 -95 -3 -3 -71 -2 -151 2 l-146 7 -4 32 c-3 17 -8 59 -11 94 l-6 62 83 0
c46 0 113 -3 149 -6z"/>
<path d="M7020 2799 c0 -24 4 -49 8 -55 4 -7 50 -13 110 -16 l102 -5 0 41 c0
23 -4 46 -8 53 -4 7 -49 15 -110 19 l-102 7 0 -44z"/>
<path d="M4245 3040 c-210 -4 -244 -7 -275 -24 -106 -57 -203 -161 -267 -286
-28 -55 -87 -239 -79 -247 3 -3 67 3 142 13 l136 19 17 41 c38 95 74 115 216
117 57 1 106 -1 110 -5 4 -4 -17 -40 -47 -80 -30 -40 -65 -89 -78 -108 -14
-19 -28 -39 -33 -45 -10 -12 -69 -92 -122 -165 -370 -513 -637 -891 -632 -897
2 -2 71 17 153 41 259 76 324 94 539 147 160 39 229 61 288 91 102 53 212 156
257 240 31 58 75 207 64 217 -4 5 -214 -22 -285 -36 -20 -4 -28 -13 -33 -34
-8 -43 -44 -86 -86 -103 -20 -8 -75 -22 -121 -31 -79 -14 -85 -14 -96 2 -28
37 -32 29 156 283 47 63 96 130 108 148 13 18 28 38 33 45 35 41 474 644 478
657 4 10 -109 10 -543 0z"/>
<path d="M8627 3033 c-4 -7 126 -485 253 -928 48 -168 50 -205 14 -234 -15
-12 -33 -21 -40 -21 -18 0 -18 1 10 -105 50 -188 68 -250 75 -257 12 -13 194
-58 234 -58 89 0 131 50 131 160 1 62 -7 100 -46 225 -26 83 -99 321 -163 530
-64 209 -126 414 -139 455 -13 41 -34 109 -46 151 l-22 76 -91 7 c-118 8 -165
8 -170 -1z"/>
<path d="M5625 1731 c-27 -11 -86 -34 -130 -53 -85 -36 -89 -41 -110 -136 -7
-32 -6 -33 22 -26 46 11 197 93 258 141 42 33 55 50 53 66 -4 29 -30 31 -93 8z"/>
<path d="M8206 1381 c-3 -4 -9 -34 -12 -66 l-7 -58 114 5 c111 5 178 22 194
48 4 6 2 23 -4 38 -11 27 -13 27 -104 27 -50 0 -111 3 -134 8 -23 4 -44 3 -47
-2z"/>
<path d="M3915 1243 c-22 -11 -159 -96 -194 -120 -7 -5 -40 -287 -34 -293 8
-7 126 123 183 202 46 66 87 174 79 211 -4 14 -7 14 -34 0z"/>
<path d="M4325 3800 c3 -5 13 -10 21 -10 8 0 12 5 9 10 -3 6 -13 10 -21 10 -8
0 -12 -4 -9 -10z"/>
<path d="M9227 3713 c-4 -3 -7 -11 -7 -17 0 -6 5 -5 12 2 16 16 77 15 108 -3
l25 -14 -25 -1 c-15 0 -31 5 -37 11 -6 6 -21 9 -34 6 -22 -4 -22 -4 4 -6 26
-1 40 -21 15 -21 -7 0 -24 -3 -38 -6 -20 -4 -22 -3 -10 5 12 9 11 11 -7 11
-26 0 -31 -15 -7 -24 26 -10 86 -7 79 4 -4 6 6 10 24 10 37 0 50 19 26 37 -19
13 -116 18 -128 6z"/>
<path d="M9184 3666 c-16 -17 -25 -58 -11 -53 9 3 30 57 24 63 -1 1 -7 -3 -13
-10z"/>
<path d="M6199 3613 c-13 -16 -12 -17 4 -4 9 7 17 15 17 17 0 8 -8 3 -21 -13z"/>
<path d="M6585 3610 c3 -5 11 -10 16 -10 6 0 7 5 4 10 -3 6 -11 10 -16 10 -6
0 -7 -4 -4 -10z"/>
<path d="M9120 3610 c0 -6 7 -10 15 -10 8 0 15 2 15 4 0 2 -7 6 -15 10 -8 3
-15 1 -15 -4z"/>
<path d="M9185 3590 c-3 -5 -1 -10 4 -10 6 0 11 5 11 10 0 6 -2 10 -4 10 -3 0
-8 -4 -11 -10z"/>
<path d="M6076 3553 c-6 -14 -5 -15 5 -6 7 7 10 15 7 18 -3 3 -9 -2 -12 -12z"/>
<path d="M6045 3530 c-3 -5 -1 -10 4 -10 6 0 11 5 11 10 0 6 -2 10 -4 10 -3 0
-8 -4 -11 -10z"/>
<path d="M9353 3503 c-7 -2 -13 -13 -13 -23 0 -10 -6 -20 -12 -23 -7 -2 -10
-8 -6 -12 5 -5 17 3 29 16 21 24 21 24 15 2 -10 -31 3 -29 31 4 18 20 20 29
11 35 -14 8 -36 9 -55 1z m47 -13 c0 -5 -4 -10 -10 -10 -5 0 -10 5 -10 10 0 6
5 10 10 10 6 0 10 -4 10 -10z"/>
<path d="M9005 3449 c-4 -6 -5 -13 -2 -16 7 -7 27 6 27 18 0 12 -17 12 -25 -2z"/>
<path d="M9275 3420 c-3 -11 -3 -29 0 -41 6 -19 8 -20 26 -3 20 18 27 40 9 29
-5 -3 -10 -1 -10 4 0 6 5 11 11 11 5 0 7 5 4 10 -10 17 -33 11 -40 -10z m25
-30 c0 -5 -4 -10 -10 -10 -5 0 -10 5 -10 10 0 6 5 10 10 10 6 0 10 -4 10 -10z"/>
<path d="M9180 3384 c0 -39 31 -77 59 -72 28 6 23 28 -8 34 -27 6 -31 11 -31
40 0 19 -4 34 -10 34 -5 0 -10 -16 -10 -36z"/>
<path d="M3764 3371 c0 -17 2 -17 23 -4 13 9 23 17 23 19 0 2 -10 4 -23 4 -16
0 -23 -6 -23 -19z"/>
<path d="M9127 3334 c-21 -21 12 -67 40 -57 18 7 16 33 -2 33 -7 0 -18 7 -23
15 -4 9 -11 12 -15 9z"/>
<path d="M8730 3260 c-12 -8 -11 -10 8 -10 12 0 22 5 22 10 0 13 -11 13 -30 0z"/>
<path d="M8798 3258 c5 -5 16 -8 23 -6 8 3 3 7 -10 11 -17 4 -21 3 -13 -5z"/>
<path d="M3948 3253 c7 -3 16 -2 19 1 4 3 -2 6 -13 5 -11 0 -14 -3 -6 -6z"/>
<path d="M8918 3253 c7 -3 16 -2 19 1 4 3 -2 6 -13 5 -11 0 -14 -3 -6 -6z"/>
<path d="M9002 3251 c-6 -4 -1 -11 14 -18 27 -12 31 -8 11 12 -8 7 -19 10 -25
6z"/>
<path d="M9168 3253 c7 -3 16 -2 19 1 4 3 -2 6 -13 5 -11 0 -14 -3 -6 -6z"/>
<path d="M4020 3240 c0 -5 7 -10 16 -10 8 0 12 5 9 10 -3 6 -10 10 -16 10 -5
0 -9 -4 -9 -10z"/>
<path d="M3788 3143 c7 -3 16 -2 19 1 4 3 -2 6 -13 5 -11 0 -14 -3 -6 -6z"/>
</g>
</svg>
