<svg xmlns="http://www.w3.org/2000/svg" xmlns:xlink="http://www.w3.org/1999/xlink" width="84" height="84" viewBox="0 0 84 84">
  <defs>
    <clipPath id="clip-path">
      <rect id="Rectangle_414" data-name="Rectangle 414" width="84" height="84" transform="translate(-0.246 -0.246)" fill="none"/>
    </clipPath>
  </defs>
  <g id="Group_169" data-name="Group 169" transform="translate(0.212 0.212)">
    <g id="Group_168" data-name="Group 168" transform="translate(0.035 0.035)" clip-path="url(#clip-path)">
      <path id="Path_63" data-name="Path 63" d="M144.851,51.92a60.642,60.642,0,0,1,18.19,3.109,4.924,4.924,0,0,1,2.932,2.653,26.308,26.308,0,0,1,2.078,7.236,62.5,62.5,0,0,0,1.19,6.254c.2.687-.178,1.117-.649,1.527a47.04,47.04,0,0,0-6.3,6.679,51.2,51.2,0,0,0-7.895,14.76,2.227,2.227,0,0,1-2.161,1.671c-1.675.132-3.345.346-5.011.573a23.439,23.439,0,0,1-7.234-.344c-.851-.148-1.7-.282-2.561-.394-.756-.1-.979-.667-1.181-1.266a52.609,52.609,0,0,0-2.875-6.815,50.176,50.176,0,0,0-11.721-14.976,1.49,1.49,0,0,1-.569-1.675c.824-3.152,1.6-6.318,2.381-9.48a23.942,23.942,0,0,1,1.37-3.828,4.48,4.48,0,0,1,2.5-2.41,41.78,41.78,0,0,1,13.592-3.1c1.309-.073,2.615-.2,3.93-.177m3.273,33.953a4.535,4.535,0,0,1,.652-.591,12.669,12.669,0,0,0,3.247-2.918c1.561-1.931,2.316-4.289,3.4-6.471.02-.04-.03-.115-.066-.239a50.169,50.169,0,0,0-5.747,4.746c-1.746,1.8-2.633,4.177-4.163,6.138.188-1.36.441-2.692.7-4.023a13.931,13.931,0,0,0,.464-5.29c-.4-2.112-.874-4.21-1.315-6.314a.783.783,0,0,0-.329-.556c-.607,2.667-1.661,5.162-1.769,7.843-.107,2.65.667,5.233.85,7.893-1.378-2-2.317-4.3-4.217-5.912-1.852-1.575-3.552-3.329-5.529-4.755,2.83,6.93,3.023,6.971,7,10.27l-.222.191a13.894,13.894,0,0,0-7.315-.632,29.345,29.345,0,0,0,8.981,2.838,10.666,10.666,0,0,0-4.1,2.9c2.265-.45,4.32-.887,6-2.505.122,1.109.221,2.085.341,3.058.027.219-.1.608.244.591.222-.011.262-.383.244-.638-.023-.32-.058-.64-.092-.959-.064-.6-.132-1.2-.212-1.925a9.9,9.9,0,0,0,6.038,2.293c-1.333-1.462-3.013-2-4.831-2.677a19.825,19.825,0,0,0,9.866-2.942,11.7,11.7,0,0,0-7.813.859c-.156-.029-.282-.093-.311-.27m-3.26-18.751A81.549,81.549,0,0,1,163.4,68.473c1.471.295,2.125-.409,1.8-1.864-.451-2-.918-3.995-1.378-5.992a3.594,3.594,0,0,0-1.188-2.086,10.068,10.068,0,0,0-2.66-1.592A37.781,37.781,0,0,0,151.6,54.77a49.072,49.072,0,0,0-12.51-.1,42.857,42.857,0,0,0-9.479,2.012,5.47,5.47,0,0,0-3.746,4.15c-.381,1.686-.732,3.378-1.079,5.072-.442,2.159-.089,2.543,2.094,2.307,3.418-.369,6.833-.75,10.275-.834,2.572-.063,5.142-.166,7.713-.251" transform="translate(-103.045 -44.221)" fill="#fbfcfb"/>
      <path id="Path_64" data-name="Path 64" d="M57.75,339.753c0-1.783-.008-3.565.006-5.347a.823.823,0,0,0-.51-.892c-.3-.116-.607-.3-.484-.616.132-.344.53-.186.8-.14,2.339.4,4.673.825,7.011,1.229,6.138,1.062,12.255,2.265,18.448,2.979a66.9,66.9,0,0,0,17.39-.163c7.317-1.067,14.558-2.553,21.8-4.016a2.966,2.966,0,0,1,.438-.074c.244-.012.524-.053.609.271a.471.471,0,0,1-.308.6c-.948.265-.951.982-.95,1.763,0,3.243,0,6.487-.049,9.729-.02,1.241-.57,1.733-1.812,1.762-1.262.03-2.526.027-3.789,0a1.593,1.593,0,0,1-1.718-1.5,12.666,12.666,0,0,1-.094-2.518c-.014-1.931-.021-3.863.007-5.794.009-.587-.044-.823-.753-.653-4.611,1.1-9.245,2.115-13.851,3.239a39.524,39.524,0,0,1-19.094-.1Q73.4,337.7,65.967,335.811c-.716-.183-.8.091-.793.653q.019,3.677.021,7.354c0,2.736-.295,3.035-3,3.035-.892,0-1.783.012-2.675,0a1.585,1.585,0,0,1-1.753-1.748c-.02-.891-.022-1.782-.026-2.674s0-1.783,0-2.675h.009" transform="translate(-48.321 -283.245)" fill="#fbfcfb"/>
      <path id="Path_65" data-name="Path 65" d="M64.759,194.953a9.759,9.759,0,0,1,2.561,2.037,56.711,56.711,0,0,1,11.435,17.352,12.926,12.926,0,0,1,.685,2.264c.09.419-.032.5-.436.477a96.036,96.036,0,0,1-10.177-1.065c-4.024-.661-8.04-1.373-12.064-2.032-.594-.1-.814-.328-.838-.933a31.5,31.5,0,0,1,.432-8.71,7.385,7.385,0,0,1,6.673-6c1.214-.149,1.258-.2,1.392-1.38.044-.393.109-.783.173-1.173.043-.261.1-.52.163-.837m-.288,18.022a4.692,4.692,0,1,0-4.846-4.668,4.767,4.767,0,0,0,4.846,4.668" transform="translate(-47.549 -165.992)" fill="#fbfcfb"/>
      <path id="Path_66" data-name="Path 66" d="M352.283,216.573a50.221,50.221,0,0,1,14.494-22.115c.09.76.2,1.385.229,2.014a1.279,1.279,0,0,0,1.061,1.323,17.672,17.672,0,0,1,3.155,1.051,6.277,6.277,0,0,1,3.813,5.648c.184,2.644,0,5.291.011,7.937a.734.734,0,0,1-.683.811c-6.119,1.125-12.166,2.663-18.391,3.179a22.438,22.438,0,0,1-2.441.154c-.389-.01-.778,0-1.248,0m14.268-4.019a4.695,4.695,0,1,0,.059-9.38,4.933,4.933,0,0,0-4.919,4.668,4.879,4.879,0,0,0,4.86,4.713" transform="translate(-299.932 -165.57)" fill="#fbfcfb"/>
      <path id="Path_67" data-name="Path 67" d="M80.376,158.921c.272,0,.545-.008.817,0a1.793,1.793,0,0,1,1.957,1.929A1.748,1.748,0,0,1,81.23,162.8a9.345,9.345,0,0,1-2.367-.082,1.625,1.625,0,0,1-1.36-1.9,1.693,1.693,0,0,1,1.467-1.844,10.84,10.84,0,0,1,1.406-.011c0-.012,0-.025,0-.038" transform="translate(-66.002 -135.314)" fill="#fbfcfb"/>
      <path id="Path_68" data-name="Path 68" d="M453.115,158.891c.247,0,.5-.009.742,0,1.387.059,2.008.646,2.032,1.912s-.61,1.9-1.959,2a6.968,6.968,0,0,1-2.425-.148,1.729,1.729,0,0,1-1.241-2.076,1.683,1.683,0,0,1,1.591-1.653c.417-.037.84-.006,1.26-.006Z" transform="translate(-383.333 -135.288)" fill="#fbfcfb"/>
      <path id="Path_69" data-name="Path 69" d="M165.494,80.866c-2.571.085-5.141.187-7.713.25-3.441.084-6.857.465-10.275.834-2.183.236-2.536-.148-2.094-2.307.347-1.693.7-3.386,1.079-5.072a5.47,5.47,0,0,1,3.746-4.15,42.857,42.857,0,0,1,9.479-2.012,49.071,49.071,0,0,1,12.51.1,37.782,37.782,0,0,1,8.374,2.169,10.069,10.069,0,0,1,2.66,1.592,3.594,3.594,0,0,1,1.188,2.086c.46,2,.927,3.993,1.378,5.992.328,1.455-.326,2.159-1.8,1.864a81.549,81.549,0,0,0-18.535-1.351" transform="translate(-123.674 -57.965)" fill="#025f10"/>
      <path id="Path_70" data-name="Path 70" d="M214.378,191.276c-3.982-3.3-4.174-3.34-7-10.27,1.976,1.425,3.677,3.18,5.529,4.755,1.9,1.616,2.839,3.911,4.217,5.912-.183-2.66-.958-5.243-.85-7.893.108-2.681,1.163-5.176,1.769-7.843a.783.783,0,0,1,.329.557c.441,2.1.916,4.2,1.315,6.314a13.927,13.927,0,0,1-.464,5.29c-.259,1.331-.512,2.663-.7,4.023,1.53-1.961,2.417-4.339,4.163-6.138a50.152,50.152,0,0,1,5.747-4.746c.036.124.086.2.066.239-1.087,2.182-1.842,4.54-3.4,6.471a12.664,12.664,0,0,1-3.247,2.918,4.537,4.537,0,0,0-.652.591,8.317,8.317,0,0,0-1.179.9,3.627,3.627,0,0,0,1.49-.625,11.7,11.7,0,0,1,7.813-.859,19.826,19.826,0,0,1-9.866,2.942c1.818.676,3.5,1.215,4.831,2.677a9.9,9.9,0,0,1-6.038-2.293c.081.729.148,1.327.212,1.925.034.319.069.639.092.959.019.255-.022.627-.243.638-.341.017-.217-.372-.244-.591-.121-.973-.22-1.948-.342-3.058-1.677,1.618-3.732,2.055-6,2.505a10.663,10.663,0,0,1,4.1-2.9,29.344,29.344,0,0,1-8.981-2.838,13.9,13.9,0,0,1,7.315.632l1.381.744a1.935,1.935,0,0,0-1.159-.936" transform="translate(-176.112 -149.802)" fill="#056010"/>
      <path id="Path_71" data-name="Path 71" d="M296.931,280.593a3.627,3.627,0,0,1-1.49.625,8.306,8.306,0,0,1,1.179-.9c.028.176.154.241.311.27" transform="translate(-251.54 -238.67)" fill="#f5eac6"/>
      <path id="Path_72" data-name="Path 72" d="M256.264,279.12a1.935,1.935,0,0,1,1.159.936l-1.381-.744.222-.191" transform="translate(-217.999 -237.646)" fill="#f5eac6"/>
      <path id="Path_73" data-name="Path 73" d="M86.214,262.48a4.692,4.692,0,1,1,.05-9.377,4.693,4.693,0,1,1-.05,9.377" transform="translate(-69.293 -215.497)" fill="#056010"/>
      <path id="Path_74" data-name="Path 74" d="M420.43,262.462a4.879,4.879,0,0,1-4.86-4.713,4.933,4.933,0,0,1,4.919-4.668,4.695,4.695,0,1,1-.059,9.38" transform="translate(-353.81 -215.478)" fill="#056010"/>
      <path id="Path_75" data-name="Path 75" d="M128.579,454.941c-.661-.076-1.126-.681-1.632-1.146-.228-.209.28-.491.429-.753.279-.49.612-.627,1.073-.142.3.317.713.533.907.953.257.555-.064,1.078-.777,1.089" transform="translate(-108.046 -385.333)" fill="#056010"/>
      <path id="Path_76" data-name="Path 76" d="M140.565,437.88c-.485.01-1.709-.843-1.711-1.191a2.824,2.824,0,0,1,1.106-1.29,2.891,2.891,0,0,1,1.475,1.6.838.838,0,0,1-.87.878m.6-.8c.019-.33-.826-1.333-1.137-1.284-.417.065-.612.467-.777.8-.112.228.849.973,1.245,1a.585.585,0,0,0,.668-.52" transform="translate(-118.233 -370.691)" fill="#f4af41"/>
      <path id="Path_77" data-name="Path 77" d="M143.374,439.356a.585.585,0,0,1-.668.52c-.4-.027-1.357-.772-1.245-1,.165-.337.36-.739.777-.8.31-.049,1.155.954,1.137,1.284" transform="translate(-120.444 -372.966)" fill="#056010"/>
      <path id="Path_78" data-name="Path 78" d="M41.775,83.551a41.775,41.775,0,0,1-29.54-71.315A41.775,41.775,0,1,1,71.315,71.315a41.5,41.5,0,0,1-29.54,12.236m0-82.064A40.289,40.289,0,1,0,82.064,41.775,40.334,40.334,0,0,0,41.775,1.487" transform="translate(-0.022 -0.022)" fill="#fab13a"/>
      <path id="Path_79" data-name="Path 79" d="M48.287,6.291A40.844,40.844,0,1,0,87.99,47.2a40.83,40.83,0,0,0-39.7-40.913M72.332,30.657A1.683,1.683,0,0,1,73.923,29c.417-.037.84-.006,1.26-.006v-.029c.247,0,.5-.009.742,0,1.387.059,2.008.646,2.032,1.912s-.61,1.9-1.959,2a6.972,6.972,0,0,1-2.425-.148,1.729,1.729,0,0,1-1.241-2.076m-48.894,1.4c.824-3.152,1.6-6.318,2.381-9.48a23.938,23.938,0,0,1,1.37-3.828,4.479,4.479,0,0,1,2.5-2.41,41.781,41.781,0,0,1,13.592-3.1c1.309-.073,2.615-.2,3.93-.177A60.647,60.647,0,0,1,65.4,16.175a4.924,4.924,0,0,1,2.932,2.653,26.311,26.311,0,0,1,2.078,7.236,62.449,62.449,0,0,0,1.19,6.254c.2.687-.178,1.116-.649,1.527a47.031,47.031,0,0,0-6.3,6.679,51.2,51.2,0,0,0-7.895,14.76,2.227,2.227,0,0,1-2.161,1.671c-1.675.132-3.345.346-5.011.573a23.442,23.442,0,0,1-7.234-.344c-.851-.148-1.7-.282-2.561-.395-.756-.1-.979-.667-1.181-1.265a52.589,52.589,0,0,0-2.875-6.815A50.173,50.173,0,0,0,24.007,33.732a1.49,1.49,0,0,1-.569-1.675m-5.069-3.035a10.837,10.837,0,0,1,1.406-.011c0-.012,0-.025,0-.038.272,0,.545-.008.816,0A1.793,1.793,0,0,1,22.548,30.9a1.748,1.748,0,0,1-1.919,1.948,9.345,9.345,0,0,1-2.367-.082,1.624,1.624,0,0,1-1.36-1.9,1.693,1.693,0,0,1,1.467-1.844m-4.161,14.7a7.385,7.385,0,0,1,6.673-6c1.214-.149,1.258-.2,1.392-1.38.044-.393.109-.783.173-1.174.043-.261.1-.52.163-.837a9.755,9.755,0,0,1,2.562,2.038A56.712,56.712,0,0,1,36.606,53.717a12.93,12.93,0,0,1,.685,2.264c.091.419-.032.5-.436.477a96.038,96.038,0,0,1-10.177-1.065c-4.024-.661-8.04-1.373-12.064-2.032-.595-.1-.814-.328-.838-.933a31.5,31.5,0,0,1,.432-8.71M80.032,55.71c-.948.265-.951.981-.95,1.763,0,3.243,0,6.487-.049,9.729-.02,1.241-.57,1.733-1.813,1.762-1.262.03-2.526.027-3.788,0a1.594,1.594,0,0,1-1.719-1.5,12.674,12.674,0,0,1-.094-2.518c-.014-1.931-.021-3.863.008-5.794.008-.587-.044-.823-.753-.653-4.611,1.1-9.245,2.115-13.851,3.239a39.524,39.524,0,0,1-19.094-.1q-7.448-1.832-14.882-3.719c-.716-.183-.8.091-.793.653q.019,3.677.021,7.354c0,2.736-.295,3.035-3,3.035-.892,0-1.783.012-2.675,0a1.585,1.585,0,0,1-1.753-1.748c-.02-.891-.022-1.782-.026-2.674s0-1.783,0-2.675h.009c0-1.782-.008-3.565.006-5.347a.823.823,0,0,0-.51-.892c-.3-.116-.607-.3-.484-.616.132-.344.53-.186.8-.14,2.339.4,4.673.825,7.011,1.229,6.138,1.062,12.255,2.265,18.448,2.979a66.9,66.9,0,0,0,17.39-.163c7.317-1.067,14.557-2.553,21.8-4.016a2.96,2.96,0,0,1,.438-.074c.244-.012.524-.053.609.271a.471.471,0,0,1-.309.6m-.2-2.673c-6.119,1.125-12.166,2.663-18.391,3.179A22.441,22.441,0,0,1,59,56.37c-.389-.01-.778,0-1.248,0A50.221,50.221,0,0,1,72.246,34.254c.09.76.2,1.385.23,2.014a1.279,1.279,0,0,0,1.061,1.323,17.661,17.661,0,0,1,3.155,1.051A6.277,6.277,0,0,1,80.5,44.289c.184,2.644,0,5.291.011,7.937a.734.734,0,0,1-.683.811" transform="translate(-5.401 -5.366)" fill="#025f10"/>
      <path id="Path_80" data-name="Path 80" d="M103.019,426.624l-2.322-2.332,5.824-5.8,2.244,2.253a2.052,2.052,0,0,1,.109,3.129,1.844,1.844,0,0,1-2.172.473,1.952,1.952,0,0,1-.443,2.358,2.116,2.116,0,0,1-3.239-.084m2.2-2.648-.881-.884-1.286,1.28.895.9a.809.809,0,0,0,1.269.014.85.85,0,0,0,0-1.308m2.171-2.332-.8-.8-1.22,1.214.8.8a.776.776,0,0,0,1.223.017.784.784,0,0,0,0-1.231" transform="translate(-85.748 -356.3)" fill="#fff"/>
      <path id="Path_81" data-name="Path 81" d="M103.5,426.365a2.547,2.547,0,0,1-1.789-.84l-2.427-2.437,6.035-6.008,2.348,2.358a2.55,2.55,0,0,1,.824,1.7,2.209,2.209,0,0,1-.715,1.635,2.054,2.054,0,0,1-1.991.633,2.182,2.182,0,0,1-.625,2.2,2.351,2.351,0,0,1-1.66.756m-3.8-3.276,2.217,2.226a1.97,1.97,0,0,0,3.029.083,1.8,1.8,0,0,0,.421-2.176l-.266-.436.458.226a1.708,1.708,0,0,0,2-.445,1.919,1.919,0,0,0,.628-1.416,2.262,2.262,0,0,0-.737-1.5l-2.139-2.148Zm3.688,1.44h-.017a1.069,1.069,0,0,1-.733-.358l-1-1,1.5-1.49.986.989a1,1,0,0,1,0,1.519,1.033,1.033,0,0,1-.73.344m-1.329-1.361.79.793a.786.786,0,0,0,.529.271.737.737,0,0,0,.531-.257.7.7,0,0,0,0-1.1l-.776-.779Zm3.532-1.059a1.04,1.04,0,0,1-.729-.351l-.9-.9,1.43-1.424.9.9a1.031,1.031,0,0,1,.344.721,1.167,1.167,0,0,1-1.045,1.054m-1.209-1.254.69.693a.63.63,0,0,0,1.013.017.727.727,0,0,0,.253-.509.749.749,0,0,0-.257-.512h0l-.69-.693Z" transform="translate(-84.544 -355.096)" fill="#fab13a"/>
      <path id="Path_82" data-name="Path 82" d="M156.451,445.4l1.589.659-1.883,4.542c-.372.9-.206,1.575.546,1.887s1.368-.041,1.74-.939l1.884-4.542,1.589.659-1.879,4.531c-.87,2.1-2.564,2.612-4.07,1.987s-2.265-2.156-1.395-4.254Z" transform="translate(-131.299 -379.207)" fill="#fff"/>
      <path id="Path_83" data-name="Path 83" d="M156.33,453.478a3.3,3.3,0,0,1-1.266-.266,2.887,2.887,0,0,1-1.674-1.661,3.813,3.813,0,0,1,.2-2.787l1.936-4.668,1.864.773-1.941,4.679a1.67,1.67,0,0,0-.143,1.066.961.961,0,0,0,.609.626.987.987,0,0,0,.884-.009,1.638,1.638,0,0,0,.661-.85L159.4,445.7l1.864.773-1.936,4.668a3.323,3.323,0,0,1-3,2.333m-.645-8.993-1.822,4.394a3.526,3.526,0,0,0-.2,2.569,2.6,2.6,0,0,0,1.509,1.49c1.6.663,3.12-.085,3.876-1.907l1.822-4.394-1.315-.545-1.827,4.4a1.918,1.918,0,0,1-.793,1,1.285,1.285,0,0,1-1.141.023,1.243,1.243,0,0,1-.781-.821,1.951,1.951,0,0,1,.155-1.26l1.827-4.4Z" transform="translate(-130.454 -378.095)" fill="#fab13a"/>
      <path id="Path_84" data-name="Path 84" d="M210.436,467.445c-.415,2.4-2.128,3.8-4.35,3.418l-2.608-.451,1.4-8.1,2.608.451c2.221.384,3.366,2.269,2.948,4.68m-4.163,1.692c1.279.221,2.18-.5,2.438-1.99s-.344-2.5-1.623-2.716l-.8-.139L205.47,469Z" transform="translate(-173.25 -393.605)" fill="#fff"/>
      <path id="Path_85" data-name="Path 85" d="M205.813,470.091a4.316,4.316,0,0,1-.736-.065l-2.754-.476,1.452-8.391,2.754.476a3.641,3.641,0,0,1,2.564,1.648,4.516,4.516,0,0,1,.505,3.2c-.386,2.232-1.866,3.6-3.786,3.6m-3.146-.783,2.461.426c2.094.362,3.774-.962,4.178-3.3a4.226,4.226,0,0,0-.464-3,3.353,3.353,0,0,0-2.363-1.512l-2.461-.426Zm3.059-.966a2.712,2.712,0,0,1-.462-.041l-.95-.164.865-5,.95.164a2.072,2.072,0,0,1,1.49.953,2.816,2.816,0,0,1,.254,1.935c-.238,1.376-1.027,2.152-2.148,2.152m-.411-.334c1.2.209,2.025-.474,2.266-1.869a2.529,2.529,0,0,0-.217-1.732,1.761,1.761,0,0,0-1.286-.813l-.657-.113-.764,4.413Z" transform="translate(-172.266 -392.622)" fill="#fab13a"/>
      <path id="Path_86" data-name="Path 86" d="M263.116,469.1a3.388,3.388,0,0,1,3.377,2.848l-1.891.018a1.549,1.549,0,0,0-1.488-1.04c-1.056.01-1.772.93-1.759,2.381s.746,2.358,1.8,2.348a1.549,1.549,0,0,0,1.469-1.067l1.891-.018a3.378,3.378,0,0,1-3.324,2.9c-2.083.019-3.567-1.688-3.59-4.146s1.431-4.2,3.513-4.223" transform="translate(-221.03 -399.384)" fill="#fff"/>
      <path id="Path_87" data-name="Path 87" d="M262.307,476.769a3.446,3.446,0,0,1-2.646-1.2,4.775,4.775,0,0,1-1.059-3.1c-.023-2.555,1.482-4.353,3.66-4.373h.036a3.545,3.545,0,0,1,3.486,2.963l.043.181-2.177.02-.039-.091a1.4,1.4,0,0,0-1.335-.95h-.016c-.991.009-1.624.885-1.612,2.231a2.678,2.678,0,0,0,.479,1.632,1.435,1.435,0,0,0,1.174.568,1.4,1.4,0,0,0,1.333-.974l.037-.092,2.177-.02-.039.182a3.538,3.538,0,0,1-3.468,3.016h-.035m-.041-8.37h0c-2,.019-3.388,1.694-3.366,4.073a4.478,4.478,0,0,0,.986,2.906,3.11,3.11,0,0,0,2.419,1.093h.034a3.184,3.184,0,0,0,3.137-2.6l-1.6.015a1.678,1.678,0,0,1-1.566,1.068h-.019a1.709,1.709,0,0,1-1.392-.683,2.969,2.969,0,0,1-.541-1.812c-.014-1.5.753-2.52,1.907-2.531h.019a1.678,1.678,0,0,1,1.567,1.039l1.6-.015A3.189,3.189,0,0,0,262.3,468.4h-.035" transform="translate(-220.178 -398.532)" fill="#fab13a"/>
      <path id="Path_88" data-name="Path 88" d="M324.324,470.123l-2.588.5-.137,1.506-1.768.345.935-8.555,1.956-.381,4.082,7.577-1.788.348Zm-2.166-4.217-.273,3.119,1.709-.333Z" transform="translate(-272.304 -394.65)" fill="#fff"/>
      <path id="Path_89" data-name="Path 89" d="M318.689,471.708l.969-8.865,2.171-.423,4.23,7.851-2.1.409-.693-1.344-2.369.462-.137,1.506Zm1.241-8.615-.9,8.246,1.46-.285.137-1.506,2.807-.547.693,1.344,1.48-.289-3.934-7.3Zm.817,5.16.336-3.827,1.761,3.418Zm.542-2.777-.211,2.41,1.32-.257Z" transform="translate(-271.332 -393.695)" fill="#fab13a"/>
      <path id="Path_90" data-name="Path 90" d="M362.589,449.3a2.421,2.421,0,0,1,3.421,1.316,2.37,2.37,0,0,1-.475,2.808l2.807,2.317-1.776.785-2.6-2.243-.377.167,1.254,2.837-1.574.7-3.324-7.516Zm.58,1.561-.976.431.824,1.863.976-.431a1.021,1.021,0,0,0-.824-1.863" transform="translate(-306.456 -382.288)" fill="#fff"/>
      <path id="Path_91" data-name="Path 91" d="M362.072,457.328l-3.444-7.788,2.777-1.228a2.708,2.708,0,0,1,2.207-.095,2.78,2.78,0,0,1,1.41,1.487,2.526,2.526,0,0,1-.389,2.859l2.866,2.366-2.082.921-2.6-2.243-.155.069,1.254,2.837Zm-3.052-7.637,3.2,7.245,1.3-.575-1.254-2.838.6-.265,2.6,2.243,1.47-.65-2.752-2.272.124-.115a2.228,2.228,0,0,0,.44-2.639,2.488,2.488,0,0,0-1.257-1.334,2.419,2.419,0,0,0-1.968.094h0Zm2.8,2.808-.944-2.135,1.111-.492a1.05,1.05,0,0,1,.887-.036,1.211,1.211,0,0,1,.582.651,1.255,1.255,0,0,1,.1.89,1.047,1.047,0,0,1-.624.631Zm-.552-1.983.7,1.591.84-.371a.765.765,0,0,0,.461-.448.975.975,0,0,0-.088-.681.928.928,0,0,0-.433-.5.767.767,0,0,0-.643.038Z" transform="translate(-305.334 -381.44)" fill="#fab13a"/>
      <path id="Path_92" data-name="Path 92" d="M408.809,431.145a2.528,2.528,0,0,1-3.743.214l1.274-1.316a.868.868,0,0,0,1.282.022.743.743,0,0,0,.019-1.13c-1.094-1.058-2.961,2.049-5.042.007a2.344,2.344,0,0,1,.05-3.536,2.427,2.427,0,0,1,3.607-.192l-1.295,1.338a.82.82,0,0,0-1.181-.009.669.669,0,0,0,.034,1.042c1.026.993,2.992-1.963,4.969-.05a2.426,2.426,0,0,1,.025,3.609" transform="translate(-342.102 -361.414)" fill="#fff"/>
      <path id="Path_93" data-name="Path 93" d="M405.944,431.405a2.726,2.726,0,0,1-1.844-.768l-.113-.1,1.476-1.524.106.087a.735.735,0,0,0,1.08.034.719.719,0,0,0,.228-.475.6.6,0,0,0-.206-.445c-.365-.353-.836-.152-1.574.206-.974.472-2.186,1.06-3.469-.2a2.484,2.484,0,0,1,.047-3.746,2.581,2.581,0,0,1,3.813-.2l.116.1-1.5,1.55-.106-.092a.674.674,0,0,0-.98-.015.553.553,0,0,0-.188.392.621.621,0,0,0,.222.437c.339.328.81.134,1.549-.21.979-.456,2.2-1.023,3.419.16a2.575,2.575,0,0,1,.029,3.82,2.946,2.946,0,0,1-2.106.989m-1.528-.887a2.366,2.366,0,0,0,3.42-.308,2.278,2.278,0,0,0-.022-3.4c-1.076-1.041-2.145-.544-3.087-.1-.709.33-1.378.642-1.881.155a.915.915,0,0,1-.312-.65.84.84,0,0,1,.277-.6.95.95,0,0,1,1.271-.084l1.091-1.127a2.268,2.268,0,0,0-3.283.284,2.184,2.184,0,0,0-.054,3.326c1.134,1.113,2.2.6,3.132.145.708-.343,1.377-.668,1.91-.152a.892.892,0,0,1,.3.665,1.009,1.009,0,0,1-.312.676.989.989,0,0,1-1.374.073Z" transform="translate(-341.236 -360.583)" fill="#fab13a"/>
    </g>
  </g>
</svg>
