<svg id="Group_7" data-name="Group 7" xmlns="http://www.w3.org/2000/svg" xmlns:xlink="http://www.w3.org/1999/xlink" width="23.691" height="26" viewBox="0 0 23.691 26">
  <defs>
    <clipPath id="clip-path">
      <rect id="Rectangle_143" data-name="Rectangle 143" width="23.691" height="26" fill="#4e4e4e"/>
    </clipPath>
  </defs>
  <g id="Group_6" data-name="Group 6" clip-path="url(#clip-path)">
    <path id="Path_27" data-name="Path 27" d="M12.179,0c.158.042.318.077.473.126a2.089,2.089,0,0,1,1.566,1.985c.007.52.01,1.04,0,1.56,0,.165.06.229.239.285,2.982.937,4.844,2.74,5.522,5.422a6.987,6.987,0,0,1,.155,1.5c.03.983,0,1.968.04,2.95a7.6,7.6,0,0,0,1.448,4.031c.639.918,1.272,1.838,1.914,2.754a.523.523,0,0,1,.084.63.71.71,0,0,1-.665.265q-11.108,0-22.215,0a.707.707,0,0,1-.663-.267.522.522,0,0,1,.085-.629c.628-.9,1.242-1.8,1.872-2.692a8,8,0,0,0,1.523-4.741c0-.832-.011-1.664,0-2.5C3.61,7.6,5.83,4.959,9.212,3.965c.2-.06.265-.137.263-.319a16.3,16.3,0,0,1,.024-1.8A2.124,2.124,0,0,1,11.385.042,1,1,0,0,0,11.512,0Z" transform="translate(0)" fill="#4e4e4e"/>
    <path id="Path_28" data-name="Path 28" d="M110.121,306.4h7.367a4.325,4.325,0,0,1-3.507,3.3,4.2,4.2,0,0,1-3.86-3.3" transform="translate(-101.964 -283.707)" fill="#4e4e4e"/>
  </g>
</svg>
