<svg id="Group_18" data-name="Group 18" xmlns="http://www.w3.org/2000/svg" xmlns:xlink="http://www.w3.org/1999/xlink" width="30.933" height="34.21" viewBox="0 0 30.933 34.21">
  <defs>
    <clipPath id="clip-path">
      <rect id="Rectangle_161" data-name="Rectangle 161" width="30.933" height="34.21"/>
    </clipPath>
  </defs>
  <g id="Group_10" data-name="Group 10" clip-path="url(#clip-path)">
    <path id="Path_36" data-name="Path 36" d="M121.98,358.867a1.051,1.051,0,1,1-2.1,0,1.051,1.051,0,0,1,2.1,0" transform="translate(-111.431 -332.606)"/>
    <path id="Path_37" data-name="Path 37" d="M40.969,357.819a1.05,1.05,0,1,1-1.041,1.057,1.057,1.057,0,0,1,1.041-1.057" transform="translate(-37.114 -332.605)"/>
    <path id="Path_38" data-name="Path 38" d="M11.059,232.67c-.656-.062-1.323-.016-1.985-.016l-4.358-.041c-.878,0-1.71-.006-2.542,0-.22,0-.324-.047-.381-.288a1.224,1.224,0,0,0-.345-.588c-.379-.347-.865-.208-1.314-.192-.051,0-.137.138-.134.209a.263.263,0,0,0,.154.195,1.7,1.7,0,0,0,.419.024c.616,0,.707.079.827.667q.627,3.086,1.261,6.171a1.112,1.112,0,0,0,1.094.964c2.125.011,4.25.005,6.375.006.035,0,.084.011.1-.007.077-.071.182-.144.2-.233.011-.053-.108-.161-.19-.2a.722.722,0,0,0-.278-.013H7.008c-1.033,0-2.066,0-3.1,0a.677.677,0,0,1-.78-.684H3.55q3.188,0,6.375,0a.948.948,0,0,0,1.048-.748q.4-2.09.769-4.188a.871.871,0,0,0-.683-1.039" transform="translate(0 -215.194)"/>
    <path id="Path_39" data-name="Path 39" d="M71.9,31.65H95.174V9.167h-.417q-2.344,0-4.688,0c-1.016,0-1.48-.472-1.481-1.491q0-2.343,0-4.687v-.4H74.464V14.194H71.895v-.359q0-6.184,0-12.369A1.3,1.3,0,0,1,73.348.006q8.159,0,16.318,0a1.675,1.675,0,0,1,1.253.533Q94.127,3.755,97.35,6.96a1.325,1.325,0,0,1,.408.978q0,12.263,0,24.526c0,.07,0,.141,0,.211a1.334,1.334,0,0,1-1.524,1.535H73.47c-1.119,0-1.575-.462-1.575-1.588,0-.3,0-.609,0-.973" transform="translate(-66.829 -0.001)"/>
    <path id="Path_40" data-name="Path 40" d="M200.259,330.168v2.512H187.881l.655-2.512Z" transform="translate(-174.642 -306.902)"/>
    <path id="Path_41" data-name="Path 41" d="M215.439,227.2c.211-.813.408-1.608.635-2.393.021-.072.224-.13.343-.13,2.172-.008,4.344-.006,6.516-.006h2.938V227.2Z" transform="translate(-200.258 -208.842)"/>
    <rect id="Rectangle_160" data-name="Rectangle 160" width="8.555" height="2.498" transform="translate(10.383 8.441)"/>
  </g>
</svg>
