<svg id="Group_17" data-name="Group 17" xmlns="http://www.w3.org/2000/svg" xmlns:xlink="http://www.w3.org/1999/xlink" width="36.741" height="43.327" viewBox="0 0 36.741 43.327">
  <defs>
    <clipPath id="clip-path">
      <rect id="Rectangle_164" data-name="Rectangle 164" width="36.741" height="43.327"/>
    </clipPath>
  </defs>
  <g id="Group_16" data-name="Group 16" clip-path="url(#clip-path)">
    <path id="Path_45" data-name="Path 45" d="M18.542,33.254a8.773,8.773,0,0,1,1.985,1.94,4.892,4.892,0,0,1-.046,5.669,4.943,4.943,0,0,1-4.948,2.416,5.18,5.18,0,0,1-4.525-3.908,5.015,5.015,0,0,1,2.1-5.644c.489-.337.732-.6.531-1.266Q9.507,18.759,5.445,5.037a1.716,1.716,0,0,0-.891-.982C3.288,3.287,2.017,2.527.76,1.745.286,1.45-.3,1.157.178.434.6-.195,1.088-.05,1.631.295c1.34.849,2.682,1.7,4.054,2.494A2.841,2.841,0,0,1,7.027,4.581c2.688,8.97,5.42,17.927,8.087,26.9.241.81.513.871,1.225.658q9.306-2.79,18.628-5.529c.169-.05.333-.121.5-.155a.932.932,0,0,1,1.236.685c.162.628-.341.76-.789.894Q30.1,29.782,24.287,31.524c-1.875.562-3.748,1.128-5.746,1.73m.927,4.739a3.45,3.45,0,0,0-3.542-3.3,3.328,3.328,0,0,0-3.261,3.434,3.4,3.4,0,1,0,6.8-.13" transform="translate(0 0.001)"/>
    <path id="Path_46" data-name="Path 46" d="M61.75,71.641a1.756,1.756,0,0,1,1.307-1.834c4.56-1.34,9.122-2.675,13.693-3.974a1.861,1.861,0,0,1,2.293,1.385q1.262,4.2,2.455,8.417a2.037,2.037,0,0,1-1.643,2.527c-3.273.974-6.558,1.9-9.84,2.846-1.117.321-2.233.644-3.358.934A1.809,1.809,0,0,1,64.4,80.867c-.936-2.988-1.772-6.007-2.644-9.014a.788.788,0,0,1,0-.211M67.073,79.9q2.169-.652,4.339-1.3c.4-.118.591-.328.457-.775q-1.137-3.79-2.252-7.587c-.079-.269-.154-.454-.5-.33-1.55.553-3.221.738-4.686,1.548-.876-.11-.978.237-.729,1.021.712,2.245,1.413,4.5,1.983,6.78.245.981.647,1.029,1.388.646M77.02,67.747q-2.723.813-5.446,1.627c-.352.105-.251.349-.179.594q1.118,3.787,2.225,7.578c.11.378.258.506.677.373,1.637-.524,3.285-1.016,4.934-1.5.359-.106.523-.208.394-.65-.736-2.526-1.434-5.062-2.149-7.594-.063-.223-.074-.526-.455-.423" transform="translate(-48.65 -51.816)"/>
    <path id="Path_47" data-name="Path 47" d="M49.637,31.873a1.954,1.954,0,0,1-1.8-1.355c-.621-2.056-1.236-4.114-1.8-6.186A1.838,1.838,0,0,1,47.3,22.156q5.6-1.733,11.233-3.36a1.853,1.853,0,0,1,2.229,1.342c.657,2.082,1.281,4.176,1.847,6.284a1.471,1.471,0,0,1-1.1,1.9c-3.834,1.189-7.678,2.344-11.519,3.509a2.248,2.248,0,0,1-.356.043m-.5-8.229c-1.14.135-1.259.7-.859,1.7a40.413,40.413,0,0,1,1.249,3.883c.227.788.622.949,1.3.517,1.046-.278,2.087-.579,3.141-.824.5-.117.371-.375.274-.694-.5-1.643-1.007-3.283-1.455-4.939-.159-.587-.48-.612-.933-.475-.906.273-1.808.557-2.712.837M60.7,26.44q-.758-2.691-1.518-5.382c-.126-.444-.4-.348-.742-.241-1.139.361-2.282.714-3.438,1.016-.614.161-.661.458-.49,1,.5,1.576.948,3.166,1.409,4.753.12.415.266.669.794.492,1.166-.39,2.351-.725,3.531-1.075.291-.086.551-.175.454-.564" transform="translate(-36.229 -14.758)"/>
  </g>
</svg>
