<svg id="Group_24" data-name="Group 24" xmlns="http://www.w3.org/2000/svg" xmlns:xlink="http://www.w3.org/1999/xlink" width="36.161" height="37.696" viewBox="0 0 36.161 37.696">
  <defs>
    <clipPath id="clip-path">
      <rect id="Rectangle_167" data-name="Rectangle 167" width="36.161" height="37.696" transform="translate(0 0)"/>
    </clipPath>
  </defs>
  <g id="Group_23" data-name="Group 23" transform="translate(0 0)" clip-path="url(#clip-path)">
    <path id="Path_56" data-name="Path 56" d="M27,34.713c-.829-.115-1.881-.226-2.918-.418a1.721,1.721,0,0,0-1.746.542c-.618.669-1.3,1.278-1.959,1.91a3.261,3.261,0,0,1-4.606-.006c-.734-.708-1.473-1.412-2.2-2.127a1.2,1.2,0,0,0-1.076-.366c-.985.147-1.973.275-2.958.42a3.277,3.277,0,0,1-3.856-2.8c-.165-.97-.341-1.938-.506-2.907a1.267,1.267,0,0,0-.715-.971Q3.118,27.3,1.791,26.575A3.258,3.258,0,0,1,.374,22.138c.437-.895.868-1.793,1.316-2.682a1.25,1.25,0,0,0,0-1.2c-.447-.89-.881-1.787-1.315-2.683a3.259,3.259,0,0,1,1.435-4.46c.866-.467,1.733-.933,2.609-1.38a1.366,1.366,0,0,0,.773-1.091c.156-1,.333-1.988.515-2.979a3.276,3.276,0,0,1,3.75-2.638c.9.12,1.81.233,2.707.394a1.6,1.6,0,0,0,1.591-.493c.642-.68,1.335-1.312,2.012-1.959a3.251,3.251,0,0,1,4.6-.018Q21.5,2.012,22.6,3.1a1.171,1.171,0,0,0,1.045.355c.986-.142,1.973-.273,2.958-.419a3.276,3.276,0,0,1,3.877,2.813c.163.958.34,1.914.5,2.872a1.268,1.268,0,0,0,.7.98q1.342.7,2.671,1.416a3.261,3.261,0,0,1,1.423,4.463c-.435.883-.853,1.774-1.3,2.65a1.3,1.3,0,0,0,.011,1.268c.445.877.869,1.765,1.3,2.649a3.256,3.256,0,0,1-1.4,4.417q-1.327.725-2.672,1.416a1.315,1.315,0,0,0-.746,1.029c-.165,1.006-.343,2.01-.521,3.014A3.332,3.332,0,0,1,27,34.713M9.072,5.16a1.108,1.108,0,0,0-1.227.92Q7.56,7.6,7.3,9.127A3.293,3.293,0,0,1,5.49,11.615Q4.184,12.3,2.883,13a1.116,1.116,0,0,0-.536,1.654c.444.918.9,1.831,1.34,2.75a3.2,3.2,0,0,1-.008,2.915c-.438.907-.886,1.81-1.325,2.717A1.119,1.119,0,0,0,2.9,24.709c.89.472,1.784.939,2.669,1.42a3.222,3.222,0,0,1,1.722,2.393q.247,1.436.5,2.871A1.171,1.171,0,0,0,9.338,32.5c.938-.137,1.878-.261,2.815-.4a3.324,3.324,0,0,1,2.983,1c.682.676,1.374,1.342,2.068,2a1.116,1.116,0,0,0,1.742.011c.757-.719,1.5-1.458,2.257-2.172a3.121,3.121,0,0,1,2.647-.856c1,.13,2,.276,2.994.419a1.164,1.164,0,0,0,1.517-1.1q.257-1.435.5-2.871A3.251,3.251,0,0,1,30.639,26.1q1.32-.7,2.638-1.4a1.115,1.115,0,0,0,.538-1.653c-.444-.918-.9-1.83-1.34-2.749a3.185,3.185,0,0,1-.007-2.882c.44-.92.895-1.832,1.339-2.75a1.122,1.122,0,0,0-.547-1.677c-.89-.472-1.783-.94-2.669-1.42a3.229,3.229,0,0,1-1.724-2.392c-.172-.981-.341-1.962-.519-2.941A1.149,1.149,0,0,0,26.859,5.19c-.962.14-1.925.27-2.886.41a3.284,3.284,0,0,1-2.92-.977c-.65-.64-1.307-1.272-1.964-1.905-.758-.73-1.253-.732-2-.01-.631.608-1.273,1.205-1.885,1.831a3.47,3.47,0,0,1-3.282,1.03C10.95,5.4,9.972,5.287,9.072,5.16" transform="translate(0 0)"/>
    <path id="Path_57" data-name="Path 57" d="M32.351,50.651a4.492,4.492,0,0,1,.51-.822c1.351-1.38,2.722-2.741,4.088-4.106l8.318-8.315c.594-.594,1.185-1.19,1.781-1.781a1.087,1.087,0,1,1,1.53,1.534q-3.6,3.6-7.207,7.2-3.486,3.486-6.965,6.978a1.071,1.071,0,0,1-1.619.108,4,4,0,0,1-.437-.791" transform="translate(-22.629 -24.65)"/>
    <path id="Path_58" data-name="Path 58" d="M39.442,34.148a3.986,3.986,0,1,1-3.956-3.977,4,4,0,0,1,3.956,3.977m-4,1.825a1.817,1.817,0,1,0-1.8-1.823,1.834,1.834,0,0,0,1.8,1.823" transform="translate(-22.014 -21.104)"/>
    <path id="Path_59" data-name="Path 59" d="M62.334,72.739a3.986,3.986,0,1,1,3.987,3.986,4,4,0,0,1-3.987-3.986m5.8.013a1.815,1.815,0,1,0-1.854,1.8,1.825,1.825,0,0,0,1.854-1.8" transform="translate(-43.602 -48.091)"/>
  </g>
</svg>
