<svg id="Group_30" data-name="Group 30" xmlns="http://www.w3.org/2000/svg" xmlns:xlink="http://www.w3.org/1999/xlink" width="33.95" height="32.756" viewBox="0 0 33.95 32.756">
  <defs>
    <clipPath id="clip-path">
      <rect id="Rectangle_171" data-name="Rectangle 171" width="33.95" height="32.756" fill="none"/>
    </clipPath>
  </defs>
  <g id="Group_29" data-name="Group 29" clip-path="url(#clip-path)">
    <path id="Path_75" data-name="Path 75" d="M0,9.252C.848,7.691,1.7,6.135,2.542,4.57c.693-1.3,1.33-2.625,2.072-3.891A1.455,1.455,0,0,1,5.648.034C13.121,0,20.594.008,28.067,0a1.137,1.137,0,0,1,1.145.677c1.392,2.717,2.83,5.409,4.2,8.139a2.839,2.839,0,0,1,.248,1.592,4.425,4.425,0,0,1-3.37,3.933,4.52,4.52,0,0,1-5.059-1.691c-.068-.087-.145-.167-.28-.321a4.787,4.787,0,0,1-8.109-.1,4.991,4.991,0,0,1-4.074,2.253,4.939,4.939,0,0,1-3.987-2.337,5.092,5.092,0,0,1-4.71,2.343v14.3h3.3v-.921q0-4.756,0-9.511c0-1.155.131-1.287,1.245-1.289q2.887,0,5.775,0c1.05,0,1.224.194,1.222,1.23q-.012,4.968-.005,9.936c0,.165.018.33.036.618h4.325a3.853,3.853,0,0,1,1.179.033c.3.1.528.446.788.682-.269.229-.525.476-.814.676-.1.067-.276.015-.418.015q-8.406,0-16.811,0c-1.152,0-1.292-.149-1.292-1.343,0-4.7-.01-9.4.011-14.1a1.343,1.343,0,0,0-.638-1.332A5.769,5.769,0,0,1,0,10.61V9.252m31.9-.363c-1.295-2.477-2.508-4.832-3.774-7.159-.112-.206-.566-.318-.862-.318C20.338,1.394,13.41,1.4,6.482,1.388a1.009,1.009,0,0,0-1.053.627C4.62,3.631,3.76,5.221,2.923,6.823c-.347.664-.684,1.333-1.06,2.066ZM14.14,18.5h-5.3v10.28h5.3ZM24.161,10.32H17.7a3.137,3.137,0,0,0,3.031,2.855,3.236,3.236,0,0,0,3.432-2.855m1.55-.01a3.335,3.335,0,0,0,3.679,2.853,3.064,3.064,0,0,0,2.8-2.853Zm-16.116.009a3.189,3.189,0,0,0,3.38,2.792,3.065,3.065,0,0,0,3.034-2.792Zm-8.04.009a3.061,3.061,0,0,0,3.091,2.781,3.141,3.141,0,0,0,3.3-2.781Z" transform="translate(0 0)"/>
    <path id="Path_76" data-name="Path 76" d="M135.542,102.847c3.8-.076,7.3,4.31,5.29,8.2a34.025,34.025,0,0,1-4.684,6.629.756.756,0,0,1-1.293.014,34.353,34.353,0,0,1-4.641-6.557c-2.128-4.07,1.576-8.425,5.328-8.283m-.18,13.638a25.051,25.051,0,0,0,4.287-6.217,4.556,4.556,0,0,0,.319-2.214,4.075,4.075,0,0,0-3.184-3.654,4.359,4.359,0,0,0-4.763,1.39,3.983,3.983,0,0,0-.485,4.885c1.153,1.931,2.469,3.765,3.826,5.809" transform="translate(-107.469 -85.288)"/>
    <path id="Path_77" data-name="Path 77" d="M155.069,126.1a2.526,2.526,0,0,1-2.4,2.383,2.553,2.553,0,0,1-2.337-2.371,2.37,2.37,0,0,1,4.741-.012m-1.374-.045a.909.909,0,0,0-1.037-.927.889.889,0,0,0-.939,1.041.871.871,0,0,0,.984.911c.646,0,.972-.355.992-1.025" transform="translate(-124.667 -102.631)"/>
  </g>
</svg>
