<svg xmlns="http://www.w3.org/2000/svg" viewBox="0 0 64 64"><path d="M56.49,41.38H47.21V7.65a1.5,1.5,0,0,0-1.5-1.5H7.51A1.5,1.5,0,0,0,6,7.65V46.71A11.18,11.18,0,0,0,16.37,57.83l.78,0H44.24A14.47,14.47,0,0,0,55,53.23a10.3,10.3,0,0,0,2.51-4.64A24.22,24.22,0,0,0,58,42.88,1.5,1.5,0,0,0,56.49,41.38ZM17.15,54.85l-.59,0A8.16,8.16,0,0,1,9,46.71V9.15h35.2V41.38H26.79a1.5,1.5,0,0,0-1.5,1.5v3.84A8.15,8.15,0,0,1,17.15,54.85Zm37.41-7a7.31,7.31,0,0,1-1.82,3.33,11.47,11.47,0,0,1-8.51,3.64H24.75a11.12,11.12,0,0,0,3.54-8.14V44.38H55A17,17,0,0,1,54.56,47.88ZM25.84,15.49a1.5,1.5,0,0,1,1.5-1.5H39a1.5,1.5,0,0,1,0,3H27.34A1.5,1.5,0,0,1,25.84,15.49Zm14.67,10.3a1.5,1.5,0,0,1-1.5,1.5H28.44a1.5,1.5,0,0,1,0-3H39A1.5,1.5,0,0,1,40.51,25.79ZM39,37.58H17.88a1.5,1.5,0,1,1,0-3H39a1.5,1.5,0,0,1,0,3ZM22.09,24.05a4.51,4.51,0,0,1-.79,3.78,4.46,4.46,0,0,1-1.91,1.43V30.5a1.5,1.5,0,0,1-3,0V29.41a4.52,4.52,0,0,1-2.94-2.86,1.5,1.5,0,0,1,2.85-1,1.53,1.53,0,0,0,1.48,1,1.5,1.5,0,0,0,1.39-1.87,1.29,1.29,0,0,0-.89-.88c-.46-.17-1-.2-1.42-.34a4.56,4.56,0,0,1-3.41-4.64A4.5,4.5,0,0,1,16.4,15V13.8a1.5,1.5,0,1,1,3,0v1.14a4.45,4.45,0,0,1,1.08.52,4.5,4.5,0,0,1,1.92,3.16,1.5,1.5,0,1,1-3,.37,1.5,1.5,0,0,0-3,.07,1.62,1.62,0,0,0,1.27,1.59c.2.06.4.1.59.14a5.6,5.6,0,0,1,1.85.64A4.16,4.16,0,0,1,22.09,24.05Z" data-name="Layer 6"/></svg>