<svg xmlns="http://www.w3.org/2000/svg" xmlns:xlink="http://www.w3.org/1999/xlink" width="34.243" height="34.22" viewBox="0 0 34.243 34.22">
  <defs>
    <clipPath id="clip-path">
      <rect id="Rectangle_209" data-name="Rectangle 209" width="34.243" height="34.22" fill="none"/>
    </clipPath>
  </defs>
  <g id="Group_38" data-name="Group 38" transform="translate(0 0)">
    <g id="Group_37" data-name="Group 37" transform="translate(0 0)" clip-path="url(#clip-path)">
      <path id="Path_102" data-name="Path 102" d="M16.743,29.024c-.283.276-.556.563-.854.82a.642.642,0,0,1-.391.11q-7.175.008-14.349,0A1.046,1.046,0,0,1,0,28.808Q0,14.994,0,1.18A1.062,1.062,0,0,1,1.2,0Q17.116,0,33.029,0c.777,0,1.21.393,1.211,1.124q.008,9.21,0,18.419c0,.053-.01.106-.022.221-.554-.5-1.05-.878-1.034-1.748.063-3.34.016-6.682.036-10.023,0-.444-.128-.543-.554-.542q-15.549.017-31.1,0c-.434,0-.549.113-.548.548q.021,10.195,0,20.389c0,.438.121.548.548.547q7.367-.02,14.735-.008h.383l.055.1M1.056,6.394H33.211V5.9q0-2.142,0-4.284c0-.58,0-.581-.58-.581H16.266q-7.369,0-14.737-.008c-.394,0-.51.112-.5.5.02,1.471.008,2.942.009,4.413,0,.14.014.281.024.454" transform="translate(0 0)"/>
      <path id="Path_103" data-name="Path 103" d="M58.931,46.109,62.009,49.2c-.613.6-1.238,1.221-1.883,1.822a.537.537,0,0,0,.392.918c.868-.018,1.737-.006,2.634-.006v4.251h-.993c-.542,0-1.085.01-1.627,0a.462.462,0,0,0-.524.311.486.486,0,0,0,.151.627c.627.6,1.24,1.216,1.851,1.817l-3.045,3.036c-.594-.607-1.208-1.222-1.807-1.851a.491.491,0,0,0-.63-.15.461.461,0,0,0-.311.524c.011.868,0,1.735,0,2.625H51.971V61.811c0-.414-.006-.828,0-1.242.005-.263.013-.469-.317-.6a.506.506,0,0,0-.652.187c-.586.62-1.183,1.231-1.767,1.836l-3.06-3.075c.611-.6,1.234-1.221,1.88-1.823a.456.456,0,0,0,.124-.587.449.449,0,0,0-.513-.325c-.868.011-1.735,0-2.629,0v-4.25h1.314c.414,0,.828-.009,1.242,0,.274.009.464-.022.594-.335s-.012-.463-.2-.65c-.6-.592-1.188-1.194-1.757-1.768l3.029-3.028c.576.594,1.207,1.225,1.811,1.881a.4.4,0,0,0,.543.122c.225-.1.372-.2.365-.491-.019-.785-.008-1.57.02-2.355,0-.114.169-.316.263-.318,1.3-.021,2.593-.014,3.936-.014.009.177.024.328.023.479-.005.741-.032,1.483-.009,2.224a.732.732,0,0,0,.294.434.367.367,0,0,0,.56-.041c.51-.538,1.049-1.05,1.568-1.579a3.615,3.615,0,0,0,.3-.393m.01,14.355,1.592-1.554c-.452-.435-.918-.875-1.374-1.325-.537-.529-.532-.532-.21-1.234.072-.156.139-.313.2-.473.277-.737.276-.738,1.061-.738h1.9V52.966c-.82,0-1.6-.01-2.388.006a.386.386,0,0,1-.435-.3,7.234,7.234,0,0,0-.466-1.147.544.544,0,0,1,.127-.8c.551-.49,1.066-1.02,1.526-1.466l-1.514-1.587c-.538.534-1.094,1.066-1.624,1.623a.418.418,0,0,1-.585.094,10.355,10.355,0,0,0-1.262-.525.386.386,0,0,1-.309-.46c.025-.781.009-1.564.009-2.359H53v2.67c-.537.226-1.061.415-1.555.665a.44.44,0,0,1-.617-.108c-.533-.553-1.089-1.082-1.636-1.619l-1.543,1.556c.489.469.965.963,1.481,1.411.349.3.483.571.191,1a2.5,2.5,0,0,0-.341.826c-.1.414-.3.6-.74.535a6.427,6.427,0,0,0-.9-.008H46.077v2.176c.818,0,1.6.01,2.385-.006a.374.374,0,0,1,.427.306,9.4,9.4,0,0,0,.391.994c.281.62.288.617-.194,1.1l-1.366,1.354,1.533,1.576c.5-.513,1.038-1.045,1.556-1.594a.47.47,0,0,1,.662-.119,6.056,6.056,0,0,0,1.1.463.511.511,0,0,1,.436.6c-.032.75-.01,1.5-.01,2.276h2.175c0-.8.015-1.565-.008-2.332a.453.453,0,0,1,.372-.517,7.976,7.976,0,0,0,1.182-.493.47.47,0,0,1,.66.128c.515.551,1.054,1.08,1.559,1.594" transform="translate(-28.938 -28.902)"/>
      <path id="Path_104" data-name="Path 104" d="M22.923,32.578c-.5,0-.977,0-1.458,0-.21,0-.411-.005-.456.261-.051.3-.414.578-.014.92a12.454,12.454,0,0,1,.952,1l-2.214,2.2c-.3-.3-.652-.641-.995-.995-.15-.155-.286-.278-.508-.12-.238.171-.682.087-.642.594.036.468.008.94.008,1.451H14.42c0-.4.017-.793-.006-1.186-.015-.266.139-.576-.3-.736-.408-.15-.709-.257-1.017.169a8.22,8.22,0,0,1-.815.857L10,34.624c.292-.26.66-.61,1.052-.928.334-.272.064-.505-.007-.755-.066-.231-.15-.4-.461-.375-.48.035-.965.009-1.482.009V29.4c.424,0,.86-.01,1.295,0,.3.01.535,0,.654-.369.108-.335.274-.6-.114-.883a11.376,11.376,0,0,1-.972-.876l2.338-2.307c.306.326.648.688.988,1.053.133.142.267.28.467.115.223-.184.695-.057.663-.569-.03-.483-.006-.969-.006-1.491h3.176c0,.5.019.994-.007,1.488a.382.382,0,0,0,.352.44c.257.06.49.388.787.023.312-.385.673-.73.987-1.064l2.331,2.3c-.344.321-.7.652-1.05.98-.151.14-.3.274-.139.5.177.247.094.711.626.66.466-.044.939-.009,1.442-.009Zm-2.337,2.155c-.211-.191-.4-.342-.565-.517-.586-.621-.164-1.22.048-1.826a1.074,1.074,0,0,1,.966-.838c.213-.016.431.013.64-.023a.337.337,0,0,0,.231-.216c.029-.278.011-.561.011-.9a1.592,1.592,0,0,1-1.982-1.072,1.573,1.573,0,0,1,.586-2.084l-.736-.853a1.6,1.6,0,0,1-2.136.653,1.61,1.61,0,0,1-1.074-1.982c-.316,0-.569.008-.821,0-.218-.009-.33.075-.3.3a1.362,1.362,0,0,1-1.176,1.683,1.716,1.716,0,0,0-.271.126,1.034,1.034,0,0,1-1.224-.206,5.748,5.748,0,0,1-.473-.6l-.841.881a1.546,1.546,0,0,1,.608,2.1,1.584,1.584,0,0,1-1.948,1.061v1.158a1.553,1.553,0,0,1,1.952,1.055,1.564,1.564,0,0,1-.625,2.1l.786.813a1.626,1.626,0,0,1,2.132-.634,1.618,1.618,0,0,1,1.073,1.957h1.135a1.559,1.559,0,0,1,1.062-1.945,1.582,1.582,0,0,1,2.107.59l.834-.78" transform="translate(-5.851 -15.47)"/>
      <path id="Path_105" data-name="Path 105" d="M59.071,9.186H42.011V6.066h17.06ZM58.033,8.164c.011-.156.027-.267.026-.379,0-.823.076-.711-.7-.711q-6.791-.005-13.581,0a2.341,2.341,0,0,0-.512.015.347.347,0,0,0-.231.22,8.391,8.391,0,0,0-.011.857Z" transform="translate(-26.993 -3.898)"/>
      <path id="Path_106" data-name="Path 106" d="M9.165,7.589A1.566,1.566,0,0,1,7.6,9.169a1.587,1.587,0,1,1,1.566-1.58M8.128,7.577a.548.548,0,0,0-.556-.533.53.53,0,0,0-.538.553.547.547,0,0,0,1.094-.02" transform="translate(-3.849 -3.852)"/>
      <path id="Path_107" data-name="Path 107" d="M19.57,9.169A1.585,1.585,0,1,1,21.148,7.6,1.559,1.559,0,0,1,19.57,9.169m.545-1.555a.547.547,0,1,0-1.094-.023.512.512,0,0,0,.537.538.526.526,0,0,0,.557-.514" transform="translate(-11.549 -3.854)"/>
      <path id="Path_108" data-name="Path 108" d="M33.135,7.574A1.564,1.564,0,0,1,31.54,9.168a1.587,1.587,0,1,1,1.595-1.594M32.1,7.652a.564.564,0,0,0-.519-.614.545.545,0,0,0-.57.555.547.547,0,0,0,1.089.059" transform="translate(-19.25 -3.851)"/>
      <path id="Path_109" data-name="Path 109" d="M58.445,62.693a4.267,4.267,0,1,1,4.26,4.285,4.245,4.245,0,0,1-4.26-4.285m4.229,3.234a3.227,3.227,0,0,0,.066-6.454,3.227,3.227,0,1,0-.066,6.454" transform="translate(-37.552 -37.551)"/>
      <path id="Path_110" data-name="Path 110" d="M25.857,37.671a3.2,3.2,0,0,1-3.167,3.2,3.237,3.237,0,0,1-3.225-3.158,3.2,3.2,0,1,1,6.393-.043m-5.342,0A2.153,2.153,0,0,0,22.7,39.827a2.16,2.16,0,0,0,0-4.321,2.156,2.156,0,0,0-2.182,2.163" transform="translate(-12.507 -22.153)"/>
    </g>
  </g>
</svg>
