<svg xmlns="http://www.w3.org/2000/svg" width="34" height="34" viewBox="0 0 34 34">
  <path id="Subtraction_27" data-name="Subtraction 27" d="M17,34a17.274,17.274,0,0,1-1.738-.088,17.043,17.043,0,0,1-1.688-.258c-.548-.112-1.1-.253-1.629-.419s-1.053-.356-1.562-.572-1-.454-1.486-.716-.95-.546-1.4-.852A17.094,17.094,0,0,1,2.9,26.5c-.305-.452-.592-.923-.852-1.4s-.5-.982-.716-1.486S.928,22.583.764,22.055.457,20.974.345,20.426a17.041,17.041,0,0,1-.258-1.688,17.255,17.255,0,0,1,0-3.476,17.041,17.041,0,0,1,.258-1.688c.112-.548.253-1.1.419-1.629s.356-1.053.572-1.562.454-1,.716-1.486.546-.95.852-1.4A17.094,17.094,0,0,1,7.5,2.9c.452-.305.923-.592,1.4-.852s.982-.5,1.486-.716S11.417.928,11.945.764,13.026.457,13.574.345A17.041,17.041,0,0,1,15.262.088a17.255,17.255,0,0,1,3.476,0,17.041,17.041,0,0,1,1.688.258c.548.112,1.1.253,1.629.419s1.053.356,1.562.572,1,.454,1.486.716.95.546,1.4.852A17.094,17.094,0,0,1,31.1,7.5c.305.452.592.923.852,1.4s.5.982.716,1.486.408,1.034.572,1.562.307,1.081.419,1.629a17.043,17.043,0,0,1,.258,1.688,17.254,17.254,0,0,1,0,3.476,17.043,17.043,0,0,1-.258,1.688c-.112.548-.253,1.1-.419,1.629s-.356,1.053-.572,1.562-.454,1-.716,1.486-.546.95-.852,1.4A17.094,17.094,0,0,1,26.5,31.1c-.452.305-.923.592-1.4.852s-.982.5-1.486.716-1.034.408-1.562.572-1.081.307-1.629.419a17.043,17.043,0,0,1-1.688.258A17.274,17.274,0,0,1,17,34ZM8.5,9.924a1.418,1.418,0,0,0-1.417,1.417V22.673A1.418,1.418,0,0,0,8.5,24.089h17a1.418,1.418,0,0,0,1.417-1.417V11.341A1.418,1.418,0,0,0,25.5,9.924Zm17,12.749H8.5V11.985l8.1,5.6a.708.708,0,0,0,.807,0l8.1-5.6V22.673ZM17,16.142h0l-6.941-4.8H23.943L17,16.142Z" fill="#4e4e4e"/>
</svg>
