<svg xmlns="http://www.w3.org/2000/svg" width="27.987" height="27" viewBox="0 0 27.987 27">
  <g id="shopping-cart" transform="translate(0 -2.25)">
    <path id="Path_13" data-name="Path 13" d="M12.857,31.179a1.929,1.929,0,1,1-1.929-1.929A1.929,1.929,0,0,1,12.857,31.179Z" transform="translate(-1.286 -3.858)" fill="#5d5d5d"/>
    <path id="Path_14" data-name="Path 14" d="M28.607,31.179a1.929,1.929,0,1,1-1.929-1.929A1.929,1.929,0,0,1,28.607,31.179Z" transform="translate(-3.536 -3.858)" fill="#5d5d5d"/>
    <path id="Path_15" data-name="Path 15" d="M27,7.071H5.612l-.791-4.05a.964.964,0,0,0-.964-.771H0V4.179H3.067L6.75,22.692a.964.964,0,0,0,.964.771H25.071V21.535H8.5l-.79-3.857H25.071a.964.964,0,0,0,.964-.753l1.929-8.678A.964.964,0,0,0,27,7.071ZM24.3,15.75H7.347L6,9h19.8Z" transform="translate(0 0)" fill="#5d5d5d"/>
  </g>
</svg>
